STARTFONT 2.1
FONT -FontForge-Butcherman-Book-R-Normal--24-240-72-72-P-130-ISO10646-1
SIZE 24 72 72
FONTBOUNDINGBOX 36 46 -2 -16
COMMENT "Generated by fontforge, http://fontforge.sourceforge.net"
COMMENT "Copyright (c) 2011, Typomondo, with Reserved Font Name  "Butcherman"."
STARTPROPERTIES 40
FOUNDRY "FontForge"
FAMILY_NAME "Butcherman"
WEIGHT_NAME "Book"
SLANT "R"
SETWIDTH_NAME "Normal"
ADD_STYLE_NAME ""
PIXEL_SIZE 24
POINT_SIZE 240
RESOLUTION_X 72
RESOLUTION_Y 72
SPACING "P"
AVERAGE_WIDTH 130
CHARSET_REGISTRY "ISO10646"
CHARSET_ENCODING "1"
FONTNAME_REGISTRY ""
CHARSET_COLLECTIONS "ISO8859-2 ISO8859-9 ISO8859-4 ISO10646-1"
FONT_NAME "Butcherman-Regular"
FACE_NAME "Butcherman Regular"
COPYRIGHT "Copyright (c) 2011, Typomondo, with Reserved Font Name  "Butcherman"."
FONT_VERSION "001.004"
FONT_ASCENT 19
FONT_DESCENT 5
UNDERLINE_POSITION -2
UNDERLINE_THICKNESS 2
X_HEIGHT 17
CAP_HEIGHT 17
DEFAULT_CHAR 3
RAW_ASCENT 799
RAW_DESCENT 200
NORM_SPACE 4
RELATIVE_WEIGHT 40
RELATIVE_SETWIDTH 50
SUPERSCRIPT_X 0
SUPERSCRIPT_Y 8
SUPERSCRIPT_SIZE 14
SUBSCRIPT_X 0
SUBSCRIPT_Y 1
SUBSCRIPT_SIZE 14
AVG_LOWERCASE_WIDTH 140
AVG_UPPERCASE_WIDTH 134
ENDPROPERTIES
CHARS 331
STARTCHAR NULL.dup1
ENCODING 0
SWIDTH 161 0
DWIDTH 4 0
BBX 1 1 0 0
BITMAP
00
ENDCHAR
STARTCHAR CR
ENCODING 13
SWIDTH 161 0
DWIDTH 4 0
BBX 1 1 0 0
BITMAP
00
ENDCHAR
STARTCHAR space
ENCODING 32
SWIDTH 161 0
DWIDTH 4 0
BBX 1 1 0 0
BITMAP
00
ENDCHAR
STARTCHAR exclam
ENCODING 33
SWIDTH 350 0
DWIDTH 8 0
BBX 8 29 0 1
BITMAP
10
7F
7F
7E
3E
3E
7E
7E
3C
3C
3C
3C
3C
1C
1C
1C
1C
1C
1C
00
00
04
FE
7E
3E
3E
3E
3E
3A
ENDCHAR
STARTCHAR quotedbl
ENCODING 34
SWIDTH 541 0
DWIDTH 13 0
BBX 11 9 1 9
BITMAP
F3C0
FBE0
FBE0
79C0
71C0
71C0
71C0
70C0
30C0
ENDCHAR
STARTCHAR numbersign
ENCODING 35
SWIDTH 583 0
DWIDTH 14 0
BBX 14 21 0 -2
BITMAP
0318
0218
0618
0630
0630
3FFC
3FF8
3FF8
3FF8
1EF8
18C0
18C0
18C0
30C0
FFF0
FFE0
FFE0
2180
6100
6300
6300
ENDCHAR
STARTCHAR dollar
ENCODING 36
SWIDTH 534 0
DWIDTH 13 0
BBX 11 30 1 -7
BITMAP
0400
0400
0400
0C00
0400
0600
3F80
7FC0
7FE0
FFE0
FFE0
FFE0
FFE0
FBE0
F960
FF00
7F80
3F80
07C0
7BC0
FBC0
7F80
3F80
1700
0400
0400
0C00
0C00
0400
0400
ENDCHAR
STARTCHAR percent
ENCODING 37
SWIDTH 828 0
DWIDTH 20 0
BBX 18 21 1 -2
BITMAP
001800
003000
783000
FC3000
FC2000
FC7000
DC6000
DC6300
DCE780
D8C7C0
F8C7C0
39C7C0
0187C0
0187C0
018DC0
0107C0
030780
030100
020000
060000
060000
ENDCHAR
STARTCHAR ampersand
ENCODING 38
SWIDTH 522 0
DWIDTH 13 0
BBX 11 12 1 3
BITMAP
1E00
1E00
1E00
1E00
FFE0
FFC0
FFC0
FFC0
1E00
1E00
1E00
1E00
ENDCHAR
STARTCHAR quotesingle
ENCODING 39
SWIDTH 300 0
DWIDTH 7 0
BBX 5 9 1 9
BITMAP
F0
F8
F8
78
78
70
70
70
30
ENDCHAR
STARTCHAR parenleft
ENCODING 40
SWIDTH 372 0
DWIDTH 9 0
BBX 8 24 1 -3
BITMAP
01
07
1E
3E
3E
7E
7E
7E
FE
F8
F0
F0
F0
F0
F0
F0
F0
F8
78
7C
3C
3E
1E
04
ENDCHAR
STARTCHAR parenright
ENCODING 41
SWIDTH 338 0
DWIDTH 8 0
BBX 7 23 0 -3
BITMAP
70
78
7C
7E
7E
7E
7E
7E
3E
1E
1E
0E
0E
0E
1E
1C
1C
1C
1C
18
78
70
E0
ENDCHAR
STARTCHAR asterisk
ENCODING 42
SWIDTH 513 0
DWIDTH 12 0
BBX 12 14 0 5
BITMAP
0100
1980
1980
1F80
0F80
0F00
7FF0
FFF0
0F00
0F80
0F80
1D80
1DC0
0800
ENDCHAR
STARTCHAR plus
ENCODING 43
SWIDTH 458 0
DWIDTH 11 0
BBX 9 10 1 4
BITMAP
1C00
1C00
1C00
FF80
FF80
FF80
FF80
1C00
1C00
1C00
ENDCHAR
STARTCHAR comma
ENCODING 44
SWIDTH 361 0
DWIDTH 9 0
BBX 6 12 1 -4
BITMAP
FC
FC
FC
FC
FC
FC
FC
0C
0C
0C
1C
10
ENDCHAR
STARTCHAR hyphen
ENCODING 45
SWIDTH 478 0
DWIDTH 11 0
BBX 9 5 1 7
BITMAP
F400
FF80
FF80
FF80
FF80
ENDCHAR
STARTCHAR period
ENCODING 46
SWIDTH 374 0
DWIDTH 9 0
BBX 7 7 1 1
BITMAP
FE
7E
7C
7E
7E
7E
7E
ENDCHAR
STARTCHAR slash
ENCODING 47
SWIDTH 291 0
DWIDTH 7 0
BBX 7 21 0 -2
BITMAP
06
06
0E
0C
0C
0C
0C
18
18
38
30
30
30
70
60
60
60
40
C0
C0
C0
ENDCHAR
STARTCHAR zero
ENCODING 48
SWIDTH 528 0
DWIDTH 13 0
BBX 11 20 1 -2
BITMAP
0E00
3F80
7F80
FFE0
FFC0
FFC0
FFE0
FFC0
F3E0
F3C0
F3C0
F3C0
73C0
73C0
7380
7F80
7F80
3F00
1600
0400
ENDCHAR
STARTCHAR one
ENCODING 49
SWIDTH 366 0
DWIDTH 9 0
BBX 8 18 0 0
BITMAP
06
1E
FE
FE
7F
1F
1F
1E
1E
1E
1E
1E
1E
1E
1E
0E
0E
16
ENDCHAR
STARTCHAR two
ENCODING 50
SWIDTH 575 0
DWIDTH 14 0
BBX 13 21 1 -3
BITMAP
1F00
3F80
7FC0
FFC0
FFE0
FFE0
FFE0
FFE0
FBE0
73C0
77C0
07C0
0780
0780
0F08
9FF0
FFF0
FFF0
FEF0
68A0
0020
ENDCHAR
STARTCHAR three
ENCODING 51
SWIDTH 517 0
DWIDTH 12 0
BBX 10 19 1 -1
BITMAP
1E00
7F00
FF80
FFC0
FFC0
FFC0
FFC0
FFC0
F3C0
F3C0
07C0
0F80
0FC0
03C0
05C0
3DC0
3F80
1F80
1F00
ENDCHAR
STARTCHAR four
ENCODING 52
SWIDTH 466 0
DWIDTH 11 0
BBX 10 24 1 -6
BITMAP
FFC0
7F00
7E00
7C00
7C00
7C00
7C00
7800
7800
7800
7F80
7F80
7700
F700
FF00
FFC0
FF80
FF80
9780
0300
0300
0300
0300
0100
ENDCHAR
STARTCHAR five
ENCODING 53
SWIDTH 583 0
DWIDTH 14 0
BBX 12 19 1 -1
BITMAP
FF80
FFF0
FFF0
FFF0
FFF0
FFF0
FFF0
FFE0
F7E0
F000
7040
7F80
7F80
03C0
05C0
3DC0
3F80
1F80
1F00
ENDCHAR
STARTCHAR six
ENCODING 54
SWIDTH 582 0
DWIDTH 14 0
BBX 12 20 1 -2
BITMAP
0C00
3FC0
FFE0
FFE0
FFF0
FFF0
FFF0
FFF0
FBE0
F9E0
79E0
7840
7FC0
7FE0
38E0
38E0
3DE0
3FE0
1FE0
0E40
ENDCHAR
STARTCHAR seven
ENCODING 55
SWIDTH 624 0
DWIDTH 15 0
BBX 15 20 0 -2
BITMAP
0FFE
FFFE
7FFC
7FFC
7FFC
7FF8
7FF8
7FF8
3F78
0070
00F0
00E0
01E0
01E0
01C0
03C0
0380
0380
0700
0700
ENDCHAR
STARTCHAR eight
ENCODING 56
SWIDTH 459 0
DWIDTH 11 0
BBX 9 20 1 -2
BITMAP
3C00
FF80
FF80
FF80
FF80
FF80
FF80
FF80
7700
7700
7700
7F00
3E00
7F00
7700
7700
7E00
3E00
3E00
1000
ENDCHAR
STARTCHAR nine
ENCODING 57
SWIDTH 584 0
DWIDTH 14 0
BBX 12 21 1 -3
BITMAP
0700
3FC0
3FE0
7FF0
FFF0
FFF0
FFF0
FFF0
F9F0
F9F0
7FF0
7FF0
3FE0
01E0
79E0
F9C0
7FC0
3F80
1E80
0600
0400
ENDCHAR
STARTCHAR colon
ENCODING 58
SWIDTH 386 0
DWIDTH 9 0
BBX 7 19 1 1
BITMAP
FE
7E
7E
7E
7E
7E
7E
00
00
00
00
10
FE
FC
7E
7E
7E
7E
76
ENDCHAR
STARTCHAR semicolon
ENCODING 59
SWIDTH 375 0
DWIDTH 9 0
BBX 7 25 1 -4
BITMAP
10
FE
FE
7C
7E
7E
7E
7C
00
00
00
00
00
FC
FC
7C
7E
FE
FC
FE
0C
0C
0C
1C
0C
ENDCHAR
STARTCHAR less
ENCODING 60
SWIDTH 459 0
DWIDTH 11 0
BBX 9 14 1 1
BITMAP
1F80
1F80
3F00
3E00
7C00
FC00
F800
FC00
FC00
3C00
3E00
1F00
0F80
0080
ENDCHAR
STARTCHAR equal
ENCODING 61
SWIDTH 485 0
DWIDTH 12 0
BBX 9 8 1 7
BITMAP
7580
7F80
7F80
8000
0000
FF80
FF80
7F80
ENDCHAR
STARTCHAR greater
ENCODING 62
SWIDTH 432 0
DWIDTH 10 0
BBX 9 13 1 2
BITMAP
FC00
FC00
7C00
3E00
1E00
1F00
0F80
1F00
1F00
3E00
7C00
FC00
F800
ENDCHAR
STARTCHAR question
ENCODING 63
SWIDTH 577 0
DWIDTH 14 0
BBX 11 22 1 -3
BITMAP
1E00
3F80
7FC0
FFE0
FFE0
FFE0
FFE0
7BE0
7BE0
03E0
03C0
0780
0780
0700
0700
0200
0000
1F00
0F00
0F00
0F00
0B00
ENDCHAR
STARTCHAR at
ENCODING 64
SWIDTH 930 0
DWIDTH 22 0
BBX 21 26 1 -5
BITMAP
00C000
03FC00
07FE00
0F8F00
1C0380
31F9C0
33FDE0
67FCE0
67FCF0
E7FC70
C7FC70
C3DC70
C39C78
C39C78
C0FC78
C3FC70
E39C30
E39E30
E3FFF0
73FBE0
71F380
380000
3C0000
1E0800
0FFC00
03FC00
ENDCHAR
STARTCHAR A
ENCODING 65
SWIDTH 494 0
DWIDTH 12 0
BBX 11 22 0 -5
BITMAP
FFE0
1FC0
3F80
1F80
1F80
3F80
1F80
1F80
3F80
1B80
3B80
3B80
1F80
3F80
3F80
1F80
1B00
1B00
2B00
1B00
0100
0200
ENDCHAR
STARTCHAR B
ENCODING 66
SWIDTH 517 0
DWIDTH 12 0
BBX 12 19 0 -1
BITMAP
0F80
FFE0
3FF0
3FF0
1FE0
3FE0
1FE0
1FE0
1CE0
1CE0
1EC0
1FC0
1FC0
1DC0
1CC0
1CC0
1FC0
1FC0
1780
ENDCHAR
STARTCHAR C
ENCODING 67
SWIDTH 504 0
DWIDTH 12 0
BBX 10 21 1 -3
BITMAP
1F00
3F80
7FC0
FFC0
FFC0
FFC0
FFC0
FFC0
FBC0
FBC0
FBC0
F000
7000
7300
73C0
7B80
7F80
3F00
1600
1600
1200
ENDCHAR
STARTCHAR D
ENCODING 68
SWIDTH 522 0
DWIDTH 13 0
BBX 12 22 0 -4
BITMAP
0080
FFC0
7FE0
7FF0
3FF0
3FF0
3FF0
3FF0
3EF0
1C70
1C60
1C60
1C60
1CE0
1CE0
1FE0
1FC0
1BC0
1380
1300
1200
0200
ENDCHAR
STARTCHAR E
ENCODING 69
SWIDTH 570 0
DWIDTH 14 0
BBX 12 20 1 -2
BITMAP
0F00
FFF0
7FE0
7FE0
7FE0
7FC0
7FC0
7FC0
7840
3800
3F80
3F00
3F00
3880
3800
3F80
3F80
2780
2480
0100
ENDCHAR
STARTCHAR F
ENCODING 70
SWIDTH 559 0
DWIDTH 13 0
BBX 13 20 0 -2
BITMAP
2F00
FFF8
3FF0
1FE0
1FE0
1FE0
1FE0
1FE0
1F60
1E00
1FC0
1FC0
1FC0
0E20
0E00
1E00
1E00
1E00
1500
1500
ENDCHAR
STARTCHAR G
ENCODING 71
SWIDTH 499 0
DWIDTH 12 0
BBX 11 20 1 -2
BITMAP
1C00
7F00
FFC0
FFC0
FFC0
FFE0
FFC0
FFC0
F7C0
F3C0
73C0
7400
77C0
77C0
75C0
7BC0
7FC0
3F80
1F80
1500
ENDCHAR
STARTCHAR H
ENCODING 72
SWIDTH 726 0
DWIDTH 17 0
BBX 16 23 0 -5
BITMAP
0328
FF3F
3E3F
3E3E
3E3E
3E3E
1E3E
1E3C
1E3C
1E3C
1FFC
1FF8
0FF8
0E78
0E78
0E78
0E78
0E78
1870
0030
0040
0040
0080
ENDCHAR
STARTCHAR I
ENCODING 73
SWIDTH 401 0
DWIDTH 10 0
BBX 9 19 0 -1
BITMAP
FF80
7F00
3F00
3F00
1F00
1F00
1F00
1E00
1E00
1E00
1E00
1E00
1E00
1E00
1E00
1E00
0E00
0E00
0C00
ENDCHAR
STARTCHAR J
ENCODING 74
SWIDTH 455 0
DWIDTH 11 0
BBX 11 19 -1 -1
BITMAP
0780
07E0
07C0
03C0
03C0
03C0
0380
0780
0780
0780
0380
0780
7780
F780
7700
7700
7F00
3700
1600
ENDCHAR
STARTCHAR K
ENCODING 75
SWIDTH 580 0
DWIDTH 14 0
BBX 14 19 0 -1
BITMAP
BAC0
7EFC
3EF0
3EE0
1EC0
1FC0
1FC0
1FC0
1FC0
1FC0
0FC0
0FC0
0FC0
0FC0
0FC0
0CC0
0EE0
0EE0
0A60
ENDCHAR
STARTCHAR L
ENCODING 76
SWIDTH 416 0
DWIDTH 10 0
BBX 11 20 0 -2
BITMAP
FD80
7E00
3E00
3C00
3E00
3E00
3C00
3C00
3C00
3C00
3E00
3C00
1C00
1C00
1E20
1FE0
1FC0
1FC0
0BC0
0A80
ENDCHAR
STARTCHAR M
ENCODING 77
SWIDTH 740 0
DWIDTH 18 0
BBX 16 19 1 -1
BITMAP
3EF8
FE7F
7EFC
7EFE
7FFC
7FFC
3FFC
3FFC
3FFC
3FFC
3FFC
3FFC
3FBC
1DBC
1DB8
1DB8
1DB8
1D48
1008
ENDCHAR
STARTCHAR N
ENCODING 78
SWIDTH 610 0
DWIDTH 15 0
BBX 13 22 1 -4
BITMAP
0580
FDF8
7CF0
7CE0
7EE0
7EE0
7EE0
7FE0
3FE0
3FE0
3FE0
3FC0
3BC0
3BC0
3BC0
1BC0
19C0
19C0
19C0
15C0
1500
1500
ENDCHAR
STARTCHAR O
ENCODING 79
SWIDTH 504 0
DWIDTH 12 0
BBX 11 20 1 -2
BITMAP
0E00
3F80
7FC0
FFC0
FFC0
FFE0
FFC0
FFC0
F3C0
F3C0
F3C0
73C0
73C0
73C0
73C0
7B80
7F80
3F00
1300
1300
ENDCHAR
STARTCHAR P
ENCODING 80
SWIDTH 545 0
DWIDTH 13 0
BBX 13 20 0 -2
BITMAP
0FC0
FFF0
3FF0
1FF0
1FF8
1FF0
1FF0
1FF0
1E70
1E70
1E70
0E70
0FE0
0FE0
0E00
0E00
0E00
0E00
0A00
0300
ENDCHAR
STARTCHAR Q
ENCODING 81
SWIDTH 520 0
DWIDTH 13 0
BBX 12 22 0 -4
BITMAP
0200
1F80
3FE0
7FE0
7FF0
FFF0
7FF0
7FF0
7CF0
7CF0
7CF0
3CF0
3CF0
3CF0
3EE0
1FE0
0FE0
0FF0
07F0
0060
0020
0020
ENDCHAR
STARTCHAR R
ENCODING 82
SWIDTH 599 0
DWIDTH 14 0
BBX 14 20 0 -2
BITMAP
0F40
FFF0
3FF8
3FFC
1FFC
1FFC
1FFC
1F7C
1E3C
1E3C
1F78
0FF8
0FF8
0FF0
0F70
0F70
0770
0770
0538
0300
ENDCHAR
STARTCHAR S
ENCODING 83
SWIDTH 504 0
DWIDTH 12 0
BBX 11 20 1 -2
BITMAP
0600
3F80
7FC0
7FE0
FFC0
FFC0
FFC0
FFC0
F3C0
F860
FE00
7F80
3F80
07C0
73C0
FBC0
7F80
7F00
3700
0C00
ENDCHAR
STARTCHAR T
ENCODING 84
SWIDTH 622 0
DWIDTH 15 0
BBX 13 21 1 -3
BITMAP
0F00
FFF8
7FF8
7FF0
7FF0
7FF0
7FF0
3FF0
3FF0
0780
0780
0780
0780
0780
0780
0700
0780
0780
0780
0680
0400
ENDCHAR
STARTCHAR U
ENCODING 85
SWIDTH 637 0
DWIDTH 15 0
BBX 15 20 0 -2
BITMAP
9E40
7E7E
3E7C
3E7C
3E78
3E78
3E78
1E70
1E70
1E70
1CF0
1EF0
1EF0
1EF0
1EF0
1FF0
0FE0
0E80
0540
0040
ENDCHAR
STARTCHAR V
ENCODING 86
SWIDTH 570 0
DWIDTH 14 0
BBX 14 20 0 -2
BITMAP
BCFC
7CF8
3CF0
3CF0
3CF0
1DE0
1DE0
1DE0
1DC0
1DC0
1DC0
1FC0
1FC0
1F80
0F80
0F80
0F80
0F80
0F00
0D00
ENDCHAR
STARTCHAR W
ENCODING 87
SWIDTH 777 0
DWIDTH 19 0
BBX 19 18 0 0
BITMAP
04E600
3EE7E0
FEE780
3EEF00
1EEF00
0FFE00
0FFE00
0FFC00
0FFC00
07FC00
07FC00
07FC00
03F800
03B800
03B800
03B800
01B000
01B000
ENDCHAR
STARTCHAR X
ENCODING 88
SWIDTH 587 0
DWIDTH 14 0
BBX 14 19 0 -1
BITMAP
1C80
FEFC
3EF8
1EE0
0FE0
0FC0
07C0
07C0
07C0
0780
0780
0780
0780
0780
0780
07C0
07C0
0EC0
0EE0
ENDCHAR
STARTCHAR Y
ENCODING 89
SWIDTH 688 0
DWIDTH 17 0
BBX 17 19 0 -1
BITMAP
1E3000
FE3E00
1F3F80
0F7C00
07F800
03F800
03F000
01F000
01F000
01F000
00F000
00F000
00F000
00F000
00E000
00E000
006000
006000
006000
ENDCHAR
STARTCHAR Z
ENCODING 90
SWIDTH 695 0
DWIDTH 17 0
BBX 16 19 1 -1
BITMAP
1FE0
FFFF
FFFE
7FFC
7FFC
3FF8
3FF8
3FF0
31F0
23C0
0780
0780
0700
0F00
0E00
1FE0
1FC0
1FC0
0880
ENDCHAR
STARTCHAR bracketleft
ENCODING 91
SWIDTH 410 0
DWIDTH 10 0
BBX 9 22 1 -1
BITMAP
7D00
7F00
7F00
7F00
7F00
7000
7000
7000
7000
F000
F000
F000
F000
F000
F000
F000
7000
7000
7F80
7F00
7700
4400
ENDCHAR
STARTCHAR backslash
ENCODING 92
SWIDTH 292 0
DWIDTH 7 0
BBX 7 21 0 -2
BITMAP
C0
C0
60
60
60
60
60
30
30
38
18
18
18
0C
0C
0C
0C
04
06
06
02
ENDCHAR
STARTCHAR bracketright
ENCODING 93
SWIDTH 407 0
DWIDTH 10 0
BBX 8 22 0 -1
BITMAP
7F
7F
7F
7F
FF
07
0F
07
07
07
07
07
07
07
07
07
07
07
FF
7F
7F
01
ENDCHAR
STARTCHAR asciicircum
ENCODING 94
SWIDTH 523 0
DWIDTH 13 0
BBX 11 9 1 17
BITMAP
1A00
1F00
3F00
3F80
7F80
73C0
F1C0
E1E0
4080
ENDCHAR
STARTCHAR underscore
ENCODING 95
SWIDTH 452 0
DWIDTH 11 0
BBX 9 4 1 -1
BITMAP
FF80
FF80
FF80
F900
ENDCHAR
STARTCHAR grave
ENCODING 96
SWIDTH 444 0
DWIDTH 11 0
BBX 8 6 1 18
BITMAP
30
38
7C
FE
0F
01
ENDCHAR
STARTCHAR a
ENCODING 97
SWIDTH 479 0
DWIDTH 12 0
BBX 12 20 0 -2
BITMAP
BFF0
7FC0
3FC0
3FC0
3FC0
1FC0
1FC0
3FC0
1FC0
1F80
1FC0
3FC0
3FC0
39C0
3FC0
3F80
3F80
3980
3980
3880
ENDCHAR
STARTCHAR b
ENCODING 98
SWIDTH 610 0
DWIDTH 15 0
BBX 14 20 0 -2
BITMAP
00E0
FFF8
7FFC
3FFC
1FFC
1FFC
1FFC
1FFC
1E7C
0F38
0F78
0FF8
0FE0
0FF0
0E78
0E70
0E70
07F0
0FF0
0060
ENDCHAR
STARTCHAR c
ENCODING 99
SWIDTH 534 0
DWIDTH 13 0
BBX 11 20 1 -2
BITMAP
0F00
3FC0
7FE0
FFE0
FFE0
FFE0
FFE0
FFE0
FFE0
F9E0
79E0
7800
7800
7900
79C0
7BC0
3F80
3F80
2F00
0200
ENDCHAR
STARTCHAR d
ENCODING 100
SWIDTH 573 0
DWIDTH 14 0
BBX 13 21 0 -3
BITMAP
0700
FFE0
7FF0
3FF8
3FF8
3FF8
1FF8
1FF8
1FF8
1E78
1E78
0E30
0E70
0E70
0E70
0E60
0EE0
0FE0
0FE0
09C0
0800
ENDCHAR
STARTCHAR e
ENCODING 101
SWIDTH 632 0
DWIDTH 15 0
BBX 15 20 0 -2
BITMAP
03E0
FFFE
7FFC
3FF8
3FF8
3FF8
1FF0
1FF0
1E30
1E00
1E00
0FE0
0FE0
0FE0
0E00
0E00
0FE0
0FE0
09E0
0820
ENDCHAR
STARTCHAR f
ENCODING 102
SWIDTH 559 0
DWIDTH 13 0
BBX 13 20 0 -2
BITMAP
2E80
FFF8
3FF0
1FE0
1FE0
1FE0
1FE0
1FE0
1F60
1E00
1FC0
1FC0
1FC0
0E20
0E00
1E00
1E00
1E00
1600
1500
ENDCHAR
STARTCHAR g
ENCODING 103
SWIDTH 546 0
DWIDTH 13 0
BBX 12 20 1 -2
BITMAP
0E00
7F80
FFE0
FFE0
FFE0
FFF0
FFF0
FFF0
FBE0
F9E0
F1E0
7000
7380
7BE0
7BE0
39E0
3FE0
3FE0
1FC0
0A80
ENDCHAR
STARTCHAR h
ENCODING 104
SWIDTH 730 0
DWIDTH 18 0
BBX 16 20 0 -2
BITMAP
073E
FE3F
3E3F
3E3E
3E3E
3E3E
1E3E
1E3E
1E3C
1E3C
1FFC
0FFC
0FF8
0E78
0E78
0E78
0E78
0E78
0878
0010
ENDCHAR
STARTCHAR i
ENCODING 105
SWIDTH 412 0
DWIDTH 10 0
BBX 9 19 0 -1
BITMAP
BF00
7F80
3F00
1F00
1F00
1F00
1E00
1E00
1E00
1E00
1E00
1E00
1E00
0E00
0E00
0E00
0E00
0E00
0200
ENDCHAR
STARTCHAR j
ENCODING 106
SWIDTH 458 0
DWIDTH 11 0
BBX 12 19 -1 -1
BITMAP
0F00
0FF0
07E0
07E0
07C0
07C0
07C0
07C0
07C0
07C0
03C0
0380
F380
7380
7380
7F80
3F80
3F00
0280
ENDCHAR
STARTCHAR k
ENCODING 107
SWIDTH 636 0
DWIDTH 15 0
BBX 15 19 0 -1
BITMAP
0578
FE7E
3E78
3EF0
1EE0
1EE0
1EE0
1FC0
0FC0
0FC0
0FC0
0FC0
0FC0
0FC0
07E0
0660
0670
0670
0540
ENDCHAR
STARTCHAR l
ENCODING 108
SWIDTH 438 0
DWIDTH 11 0
BBX 11 20 0 -2
BITMAP
1FC0
FF00
3F00
3E00
3E00
3E00
1E00
1E00
1E00
1E00
1E00
1E00
1E00
0E00
0F00
0FE0
0FE0
0EC0
08C0
0840
ENDCHAR
STARTCHAR m
ENCODING 109
SWIDTH 770 0
DWIDTH 18 0
BBX 18 20 0 -2
BITMAP
03BE00
BF3FC0
7F3F00
3FFF00
3FFE00
3FFE00
3FFE00
1FFE00
1FFE00
3FFE00
3FFC00
1FDC00
1FDC00
1FFC00
1FFC00
1EB800
0EB800
0AB800
080800
080000
ENDCHAR
STARTCHAR n
ENCODING 110
SWIDTH 664 0
DWIDTH 16 0
BBX 16 21 0 -3
BITMAP
FE61
7E7E
7F3C
3F3C
3FBC
3FFC
3FF8
3FF8
3FF8
3FF8
1FF8
1FF8
1DF8
1DF0
1DF0
1CF0
1DF0
1CE0
0CE0
00A0
0040
ENDCHAR
STARTCHAR o
ENCODING 111
SWIDTH 545 0
DWIDTH 13 0
BBX 12 20 1 -2
BITMAP
0F00
3FC0
7FC0
FFF0
FFE0
FFE0
FFF0
FFF0
FBF0
F3E0
F3E0
71E0
71E0
73C0
7BC0
7BC0
3FC0
3F80
0B80
0280
ENDCHAR
STARTCHAR p
ENCODING 112
SWIDTH 557 0
DWIDTH 13 0
BBX 12 19 1 -1
BITMAP
3B80
FFE0
7FE0
3FF0
7FF0
3FF0
3FE0
3FE0
3CE0
3CE0
3CE0
3DE0
3FC0
1FC0
1C00
1C00
1C00
1C00
1C00
ENDCHAR
STARTCHAR q
ENCODING 113
SWIDTH 562 0
DWIDTH 14 0
BBX 13 21 0 -3
BITMAP
0780
1FE0
7FF0
7FF8
7FF8
FFF8
7FF8
7EF8
7D78
7CF8
7C78
3C78
3C78
3CF8
3EF0
1FF0
0FF0
07F8
03F8
0030
0010
ENDCHAR
STARTCHAR r
ENCODING 114
SWIDTH 616 0
DWIDTH 15 0
BBX 14 20 0 -2
BITMAP
07C0
FFF8
7FFC
3FFC
1FFC
1FFC
1FFC
1FFC
1F3C
1E38
1F78
0FF8
0FF8
0FF0
0FF0
0E70
0F70
0E70
0D70
0850
ENDCHAR
STARTCHAR s
ENCODING 115
SWIDTH 481 0
DWIDTH 12 0
BBX 10 19 1 -1
BITMAP
1E00
3F00
7FC0
FFC0
FFC0
FFC0
FFC0
FFC0
F7C0
F380
FC40
FF00
7F00
1F80
0F80
F380
7F00
3F00
3E00
ENDCHAR
STARTCHAR t
ENCODING 116
SWIDTH 683 0
DWIDTH 16 0
BBX 16 21 0 -3
BITMAP
0FF0
FFFF
7FFE
3FFC
3FFC
1FFC
1FFC
1FFC
1FFC
11E0
01E0
01E0
01E0
01E0
01E0
01E0
01E0
01E0
01E0
01E0
0060
ENDCHAR
STARTCHAR u
ENCODING 117
SWIDTH 708 0
DWIDTH 17 0
BBX 17 18 0 0
BITMAP
0F0000
FF3E00
3F3F80
3F3E00
3F3F00
1F3E00
1F3E00
1F3C00
1F3C00
1F3C00
1F3C00
1F3C00
1F3C00
0F3800
0F7800
0FF800
07F800
037000
ENDCHAR
STARTCHAR v
ENCODING 118
SWIDTH 644 0
DWIDTH 15 0
BBX 16 20 0 -2
BITMAP
9E71
7E7E
3E7C
3E78
1E78
1E78
1EF0
0E70
0F70
0FF0
0FF0
0FE0
07E0
07E0
07E0
03C0
03C0
01C0
01C0
0100
ENDCHAR
STARTCHAR w
ENCODING 119
SWIDTH 704 0
DWIDTH 17 0
BBX 17 18 0 0
BITMAP
00D000
FCCF80
7DCF00
1DDE00
3DFE00
1FFC00
1FFC00
0FFC00
0FF800
07F800
07F800
07F800
07F800
03F800
03B800
03B000
03B000
033000
ENDCHAR
STARTCHAR x
ENCODING 120
SWIDTH 599 0
DWIDTH 14 0
BBX 15 19 0 -1
BITMAP
0C80
FEFE
1EF8
1EE0
0FE0
0FC0
07C0
07C0
07C0
07C0
0780
0380
0780
0780
0780
07C0
06C0
0EC0
0EE0
ENDCHAR
STARTCHAR y
ENCODING 121
SWIDTH 604 0
DWIDTH 15 0
BBX 14 20 0 -2
BITMAP
9C40
7CFC
3EF8
0EF0
0EE0
07C0
07C0
07C0
07C0
03C0
03C0
03C0
03C0
0380
03C0
03C0
0380
0380
0380
0200
ENDCHAR
STARTCHAR z
ENCODING 122
SWIDTH 622 0
DWIDTH 15 0
BBX 13 20 1 -2
BITMAP
3F80
FFF8
FFF8
7FF0
7FF0
3FE0
3FE0
3FE0
3BC0
2380
0780
0700
0700
0600
0E00
0FC0
1FC0
1FC0
0AC0
0040
ENDCHAR
STARTCHAR braceleft
ENCODING 123
SWIDTH 372 0
DWIDTH 9 0
BBX 8 24 1 -3
BITMAP
01
07
1E
3E
3E
7E
7E
7E
FE
F8
F0
F0
F0
F0
F0
F0
F0
F8
78
7C
3C
3E
1E
04
ENDCHAR
STARTCHAR bar
ENCODING 124
SWIDTH 208 0
DWIDTH 5 0
BBX 3 22 1 -3
BITMAP
40
40
E0
C0
60
40
40
40
40
40
40
40
C0
C0
C0
40
40
40
C0
C0
40
20
ENDCHAR
STARTCHAR braceright
ENCODING 125
SWIDTH 338 0
DWIDTH 8 0
BBX 7 23 0 -3
BITMAP
70
78
7C
7E
7E
7E
7E
7E
3E
1E
1E
0E
0E
0E
1E
1C
1C
1C
1C
18
78
70
E0
ENDCHAR
STARTCHAR asciitilde
ENCODING 126
SWIDTH 535 0
DWIDTH 13 0
BBX 11 6 1 13
BITMAP
2100
63C0
FFC0
7FE0
7DC0
1000
ENDCHAR
STARTCHAR exclamdown
ENCODING 161
SWIDTH 347 0
DWIDTH 8 0
BBX 7 29 1 1
BITMAP
60
7C
7C
7C
7E
FC
FC
7C
00
00
08
38
38
38
38
38
38
78
78
78
78
FC
FC
7C
7C
FC
FC
FE
78
ENDCHAR
STARTCHAR cent
ENCODING 162
SWIDTH 552 0
DWIDTH 13 0
BBX 12 34 1 -9
BITMAP
0400
0400
0400
0400
0400
0400
0400
0F00
3FC0
7FE0
FFF0
FFE0
FFE0
FFE0
FFE0
FFE0
F9E0
79E0
7800
7800
7900
79C0
7BC0
3FC0
3F80
1F00
0500
0400
0400
0400
0400
0400
0400
0400
ENDCHAR
STARTCHAR sterling
ENCODING 163
SWIDTH 589 0
DWIDTH 14 0
BBX 12 20 1 -2
BITMAP
0A00
3FC0
7FE0
FFF0
FFF0
FFF0
FFF0
FFF0
FBF0
79E0
79E0
FC00
FE00
3800
3C20
3FC0
7FC0
7BC0
4B80
0C80
ENDCHAR
STARTCHAR yen
ENCODING 165
SWIDTH 692 0
DWIDTH 17 0
BBX 18 19 -1 2
BITMAP
961000
7F1FC0
1F1F00
0FBE00
07FC00
03FC00
03F800
01F800
3FFF80
1FFF00
00F000
18F180
1FFF80
20F000
00F000
00F000
00F000
007000
007000
ENDCHAR
STARTCHAR brokenbar
ENCODING 166
SWIDTH 201 0
DWIDTH 5 0
BBX 2 22 1 -3
BITMAP
C0
C0
C0
C0
C0
C0
40
40
00
00
00
00
00
C0
C0
40
40
40
40
40
40
80
ENDCHAR
STARTCHAR section
ENCODING 167
SWIDTH 477 0
DWIDTH 11 0
BBX 10 23 1 -5
BITMAP
0E00
3F80
7FC0
7FC0
7F80
7F80
7F80
7B80
7800
7F00
7F00
F780
F380
F300
F700
FF00
7E00
1F00
1700
FE00
7E00
7C00
2000
ENDCHAR
STARTCHAR dieresis
ENCODING 168
SWIDTH 633 0
DWIDTH 15 0
BBX 11 6 2 19
BITMAP
F3E0
F3E0
F3E0
F3E0
F3E0
F3A0
ENDCHAR
STARTCHAR copyright
ENCODING 169
SWIDTH 783 0
DWIDTH 19 0
BBX 17 20 1 -2
BITMAP
07F000
1C1800
31C400
63F200
67F100
C7F100
CFF180
CFF080
8FF080
C77080
C77080
C70180
C70180
C77100
477300
63E200
31C600
181C00
0FF800
03E000
ENDCHAR
STARTCHAR guillemotleft
ENCODING 171
SWIDTH 759 0
DWIDTH 18 0
BBX 17 13 1 2
BITMAP
099E00
1F3F00
1E3E00
3E7C00
7C7C00
F8F800
F8F000
F8F800
787800
3C7800
3E3C00
1E1E00
0F8F80
ENDCHAR
STARTCHAR uni00AD
ENCODING 173
SWIDTH 446 0
DWIDTH 11 0
BBX 8 3 1 7
BITMAP
FF
FF
FF
ENDCHAR
STARTCHAR registered
ENCODING 174
SWIDTH 780 0
DWIDTH 19 0
BBX 17 20 1 -2
BITMAP
07F000
1C0800
3B4400
7FE200
6FF300
C7F100
C7F180
C7F180
C73180
877180
87F180
83E100
C36100
43B100
63B100
31BA00
388600
1F1C00
07F800
00C000
ENDCHAR
STARTCHAR macron
ENCODING 175
SWIDTH 446 0
DWIDTH 11 0
BBX 8 3 1 7
BITMAP
FF
FF
FF
ENDCHAR
STARTCHAR acute
ENCODING 180
SWIDTH 439 0
DWIDTH 11 0
BBX 8 6 1 18
BITMAP
04
0E
1E
7F
F8
40
ENDCHAR
STARTCHAR mu
ENCODING 181
SWIDTH 679 0
DWIDTH 16 0
BBX 18 19 -1 -1
BITMAP
0F2000
FF1F00
1F1FC0
1F3F00
1F1F00
1F1E00
1F1E00
0F1E00
0F1E00
0F1C00
0F3C00
0F3C00
0F3C00
0F3C00
073C00
07FC00
07F800
036800
002000
ENDCHAR
STARTCHAR paragraph
ENCODING 182
SWIDTH 591 0
DWIDTH 14 0
BBX 13 19 1 -1
BITMAP
15C0
7FF8
FFF0
FFE0
FF60
FF60
FF60
FE60
7E60
7E60
7E60
1260
0240
0240
0240
0240
0240
0240
0240
ENDCHAR
STARTCHAR periodcentered
ENCODING 183
SWIDTH 388 0
DWIDTH 9 0
BBX 7 8 1 5
BITMAP
7E
FE
7E
7E
7E
7E
7E
40
ENDCHAR
STARTCHAR cedilla
ENCODING 184
SWIDTH 270 0
DWIDTH 7 0
BBX 5 8 1 -8
BITMAP
60
60
C0
F8
30
10
F0
F0
ENDCHAR
STARTCHAR guillemotright
ENCODING 187
SWIDTH 767 0
DWIDTH 18 0
BBX 17 13 1 2
BITMAP
F94000
FCF800
7C7C00
3E3C00
3E1E00
1F1F00
0F0F00
1F0F80
1F1F00
3E3F00
7C3E00
FC7C00
F8F800
ENDCHAR
STARTCHAR Agrave
ENCODING 192
SWIDTH 494 0
DWIDTH 12 0
BBX 12 30 -1 -5
BITMAP
2000
3800
7C00
FE00
1F00
0100
0000
0000
7FF0
0FE0
1FC0
0FC0
0FC0
1FC0
0FC0
0FC0
1FC0
0DC0
1DC0
1DC0
0FC0
1FC0
1FC0
0FC0
0D80
0D80
1580
0D80
0080
0100
ENDCHAR
STARTCHAR Aacute
ENCODING 193
SWIDTH 494 0
DWIDTH 12 0
BBX 14 30 0 -5
BITMAP
0010
0038
00F8
01FC
03E0
0200
0000
0000
FFE0
1FC0
3F80
1F80
1F80
3F80
1F80
1F80
3F80
1B80
3B80
3B80
1F80
3F80
3F80
1F80
1B00
1B00
2B00
1B00
0100
0200
ENDCHAR
STARTCHAR Acircumflex
ENCODING 194
SWIDTH 494 0
DWIDTH 12 0
BBX 11 32 0 -5
BITMAP
1F00
1F80
3F80
3FC0
3BC0
71E0
60E0
C040
0000
0000
FFE0
1FC0
3F80
1F80
1F80
3F80
1F80
1F80
3F80
1B80
3B80
3B80
1F80
3F80
3F80
1F80
1B00
1B00
2B00
1B00
0100
0200
ENDCHAR
STARTCHAR Atilde
ENCODING 195
SWIDTH 494 0
DWIDTH 12 0
BBX 12 30 0 -5
BITMAP
0100
31C0
FFF0
7FE0
3FE0
1840
0000
0000
FFE0
1FC0
3F80
1F80
1F80
3F80
1F80
1F80
3F80
1B80
3B80
3B80
1F80
3F80
3F80
1F80
1B00
1B00
2B00
1B00
0100
0200
ENDCHAR
STARTCHAR Adieresis
ENCODING 196
SWIDTH 494 0
DWIDTH 12 0
BBX 12 30 0 -5
BITMAP
F9F0
F9F0
F9F0
F9F0
F9F0
F9F0
0000
0000
FFE0
1FC0
3F80
1F80
1F80
3F80
1F80
1F80
3F80
1B80
3B80
3B80
1F80
3F80
3F80
1F80
1B00
1B00
2B00
1B00
0100
0200
ENDCHAR
STARTCHAR Aring
ENCODING 197
SWIDTH 494 0
DWIDTH 12 0
BBX 11 30 0 -5
BITMAP
0700
1F80
1980
1980
1980
1F00
1700
0000
FFE0
1FC0
3F80
1F80
1F80
3F80
1F80
1F80
3F80
1B80
3B80
3B80
1F80
3F80
3F80
1F80
1B00
1B00
2B00
1B00
0100
0200
ENDCHAR
STARTCHAR AE
ENCODING 198
SWIDTH 733 0
DWIDTH 18 0
BBX 17 23 0 -5
BITMAP
01F800
FFFF80
1FFF00
3FFF00
3FFE00
1FFE00
1FFE00
1FFE00
1FC200
3FC000
1BF800
3BF800
3BF800
1FC800
3FC000
3FFC00
1FFC00
1B7800
1B6400
1B4800
1B4800
024000
020000
ENDCHAR
STARTCHAR Ccedilla
ENCODING 199
SWIDTH 504 0
DWIDTH 12 0
BBX 10 29 1 -11
BITMAP
1F00
3F80
7FC0
FFC0
FFC0
FFC0
FFC0
FFC0
FBC0
FBC0
FBC0
F000
7000
7300
73C0
7B80
7F80
3F00
1600
1600
1200
0180
0300
0300
03C0
01C0
00C0
03C0
03C0
ENDCHAR
STARTCHAR Egrave
ENCODING 200
SWIDTH 570 0
DWIDTH 14 0
BBX 13 27 0 -2
BITMAP
2000
3000
7C00
FE00
1F00
0100
0000
0780
7FF8
3FF0
3FF0
3FF0
3FE0
3FE0
3FE0
3C20
1C00
1FC0
1F80
1F80
1C40
1C00
1FC0
1FC0
13C0
1240
0080
ENDCHAR
STARTCHAR Eacute
ENCODING 201
SWIDTH 570 0
DWIDTH 14 0
BBX 14 27 1 -2
BITMAP
0010
0038
00F8
01FC
03E0
0200
0000
0F00
FFF0
7FE0
7FE0
7FE0
7FC0
7FC0
7FC0
7840
3800
3F80
3F00
3F00
3880
3800
3F80
3F80
2780
2480
0100
ENDCHAR
STARTCHAR Ecircumflex
ENCODING 202
SWIDTH 570 0
DWIDTH 14 0
BBX 12 29 1 -2
BITMAP
1F00
1F80
3F80
3FC0
3BC0
71E0
60E0
C040
0000
0F00
FFF0
7FE0
7FE0
7FE0
7FC0
7FC0
7FC0
7840
3800
3F80
3F00
3F00
3880
3800
3F80
3F80
2780
2480
0100
ENDCHAR
STARTCHAR Edieresis
ENCODING 203
SWIDTH 570 0
DWIDTH 14 0
BBX 12 27 1 -2
BITMAP
F9F0
F9F0
F9F0
F9F0
F9F0
F9F0
0000
0F00
FFF0
7FE0
7FE0
7FE0
7FC0
7FC0
7FC0
7840
3800
3F80
3F00
3F00
3880
3800
3F80
3F80
2780
2480
0100
ENDCHAR
STARTCHAR Igrave
ENCODING 204
SWIDTH 401 0
DWIDTH 10 0
BBX 11 26 -2 -1
BITMAP
2000
7000
7800
FE00
1F00
0200
0000
3FE0
1FC0
0FC0
0FC0
07C0
07C0
07C0
0780
0780
0780
0780
0780
0780
0780
0780
0780
0380
0380
0300
ENDCHAR
STARTCHAR Iacute
ENCODING 205
SWIDTH 401 0
DWIDTH 10 0
BBX 13 26 0 -1
BITMAP
0020
00E0
01F0
03F8
07C0
0400
0000
FF80
7F00
3F00
3F00
1F00
1F00
1F00
1E00
1E00
1E00
1E00
1E00
1E00
1E00
1E00
1E00
0E00
0E00
0C00
ENDCHAR
STARTCHAR Icircumflex
ENCODING 206
SWIDTH 401 0
DWIDTH 10 0
BBX 11 28 -1 -1
BITMAP
1F00
1F00
3F80
3F80
7BC0
71C0
E0E0
4040
0000
7FC0
3F80
1F80
1F80
0F80
0F80
0F80
0F00
0F00
0F00
0F00
0F00
0F00
0F00
0F00
0F00
0700
0700
0600
ENDCHAR
STARTCHAR Idieresis
ENCODING 207
SWIDTH 401 0
DWIDTH 10 0
BBX 12 26 -1 -1
BITMAP
F9F0
F9F0
F9F0
F9F0
F9F0
F9B0
0000
7FC0
3F80
1F80
1F80
0F80
0F80
0F80
0F00
0F00
0F00
0F00
0F00
0F00
0F00
0F00
0F00
0700
0700
0600
ENDCHAR
STARTCHAR Eth
ENCODING 208
SWIDTH 530 0
DWIDTH 13 0
BBX 12 22 1 -4
BITMAP
0380
7FC0
7FE0
7FF0
3FF0
3FF0
3FF0
3FF0
3EF0
1CF0
FFE0
FF60
1CE0
1CE0
1CC0
1FC0
1FC0
1BC0
1380
1300
1200
0200
ENDCHAR
STARTCHAR Ntilde
ENCODING 209
SWIDTH 610 0
DWIDTH 15 0
BBX 13 29 1 -4
BITMAP
0100
31C0
FFE0
7FF0
3FE0
1840
0000
0580
FDF8
7CF0
7CE0
7EE0
7EE0
7EE0
7FE0
3FE0
3FE0
3FE0
3FC0
3BC0
3BC0
3BC0
1BC0
19C0
19C0
19C0
15C0
1500
1500
ENDCHAR
STARTCHAR Ograve
ENCODING 210
SWIDTH 504 0
DWIDTH 12 0
BBX 13 27 -1 -2
BITMAP
2000
3000
7C00
FE00
1F00
0100
0000
0380
0FE0
1FF0
3FF0
3FF0
3FF8
3FF0
3FF0
3CF0
3CF0
3CF0
1CF0
1CF0
1CF0
1CF0
1EE0
1FE0
0FC0
04C0
04C0
ENDCHAR
STARTCHAR Oacute
ENCODING 211
SWIDTH 504 0
DWIDTH 12 0
BBX 13 27 1 -2
BITMAP
0020
0060
01F0
03F8
07C0
0400
0000
0E00
3F80
7FC0
FFC0
FFC0
FFE0
FFC0
FFC0
F3C0
F3C0
F3C0
73C0
73C0
73C0
73C0
7B80
7F80
3F00
1300
1300
ENDCHAR
STARTCHAR Ocircumflex
ENCODING 212
SWIDTH 504 0
DWIDTH 12 0
BBX 12 29 0 -2
BITMAP
1F00
1F80
3F80
3FC0
3BC0
71E0
60E0
C040
0000
0700
1FC0
3FE0
7FE0
7FE0
7FF0
7FE0
7FE0
79E0
79E0
79E0
39E0
39E0
39E0
39E0
3DC0
3FC0
1F80
0980
0980
ENDCHAR
STARTCHAR Otilde
ENCODING 213
SWIDTH 504 0
DWIDTH 12 0
BBX 12 27 0 -2
BITMAP
0100
63C0
FFC0
FFE0
7FC0
1880
0000
0700
1FC0
3FE0
7FE0
7FE0
7FF0
7FE0
7FE0
79E0
79E0
79E0
39E0
39E0
39E0
39E0
3DC0
3FC0
1F80
0980
0980
ENDCHAR
STARTCHAR Odieresis
ENCODING 214
SWIDTH 504 0
DWIDTH 12 0
BBX 12 27 0 -2
BITMAP
F9F0
F9F0
F9F0
F9F0
F9F0
F9F0
0000
0700
1FC0
3FE0
7FE0
7FE0
7FF0
7FE0
7FE0
79E0
79E0
79E0
39E0
39E0
39E0
39E0
3DC0
3FC0
1F80
0980
0980
ENDCHAR
STARTCHAR multiply
ENCODING 215
SWIDTH 359 0
DWIDTH 9 0
BBX 8 10 0 4
BITMAP
22
36
F7
7F
3E
3E
FF
7F
36
02
ENDCHAR
STARTCHAR Oslash
ENCODING 216
SWIDTH 658 0
DWIDTH 16 0
BBX 17 20 -1 -2
BITMAP
03C000
0FF000
1FF880
1FFD00
3FFA00
1FFC00
3FFC00
1FF800
1E7C00
1E7C00
1EFC00
1F7800
1E7800
1E7800
0E7800
1FF000
2FF000
4FF000
825000
026000
ENDCHAR
STARTCHAR Ugrave
ENCODING 217
SWIDTH 637 0
DWIDTH 15 0
BBX 15 27 0 -2
BITMAP
1000
3800
3E00
7F00
0F80
0100
0000
9E40
7E7E
3E7C
3E7C
3E78
3E78
3E78
1E70
1E70
1E70
1CF0
1EF0
1EF0
1EF0
1EF0
1FF0
0FE0
0E80
0540
0040
ENDCHAR
STARTCHAR Uacute
ENCODING 218
SWIDTH 637 0
DWIDTH 15 0
BBX 16 27 0 -2
BITMAP
0004
001C
003E
007F
00F8
0080
0000
9E40
7E7E
3E7C
3E7C
3E78
3E78
3E78
1E70
1E70
1E70
1CF0
1EF0
1EF0
1EF0
1EF0
1FF0
0FE0
0E80
0540
0040
ENDCHAR
STARTCHAR Ucircumflex
ENCODING 219
SWIDTH 637 0
DWIDTH 15 0
BBX 15 29 0 -2
BITMAP
07C0
07C0
0FE0
0FE0
1EF0
1C70
3838
1010
0000
9E40
7E7E
3E7C
3E7C
3E78
3E78
3E78
1E70
1E70
1E70
1CF0
1EF0
1EF0
1EF0
1EF0
1FF0
0FE0
0E80
0540
0040
ENDCHAR
STARTCHAR Udieresis
ENCODING 220
SWIDTH 637 0
DWIDTH 15 0
BBX 15 27 0 -2
BITMAP
3E7C
3E7C
3E7C
3E7C
3E7C
3E7C
0000
9E40
7E7E
3E7C
3E7C
3E78
3E78
3E78
1E70
1E70
1E70
1CF0
1EF0
1EF0
1EF0
1EF0
1FF0
0FE0
0E80
0540
0040
ENDCHAR
STARTCHAR Yacute
ENCODING 221
SWIDTH 688 0
DWIDTH 17 0
BBX 17 26 0 -1
BITMAP
000600
000E00
001F00
003F80
007800
004000
000000
1E3000
FE3E00
1F3F80
0F7C00
07F800
03F800
03F000
01F000
01F000
01F000
00F000
00F000
00F000
00F000
00E000
00E000
006000
006000
006000
ENDCHAR
STARTCHAR Thorn
ENCODING 222
SWIDTH 521 0
DWIDTH 13 0
BBX 12 25 0 -3
BITMAP
FE00
7E00
7E00
7C00
7FC0
7FE0
7FF0
7FF0
7FF0
7FF0
7FF0
3FF0
3CE0
3C60
3C60
3E60
3FE0
1FC0
1C00
1C00
1C00
1E00
1600
1600
1400
ENDCHAR
STARTCHAR germandbls
ENCODING 223
SWIDTH 546 0
DWIDTH 13 0
BBX 12 19 1 -2
BITMAP
7FE0
FFE0
FFE0
FFE0
FFE0
FFF0
FFE0
F9E0
F9C0
F9C0
7FC0
7B80
7BC0
71C0
79C0
7980
7F80
7F80
0100
ENDCHAR
STARTCHAR agrave
ENCODING 224
SWIDTH 479 0
DWIDTH 12 0
BBX 13 27 -1 -2
BITMAP
3000
3800
7C00
FE00
1F00
0100
0000
5FF8
3FE0
1FE0
1FE0
1FE0
0FE0
0FE0
1FE0
0FE0
0FC0
0FE0
1FE0
1FE0
1CE0
1FE0
1FC0
1FC0
1CC0
1CC0
1C40
ENDCHAR
STARTCHAR aacute
ENCODING 225
SWIDTH 479 0
DWIDTH 12 0
BBX 14 27 0 -2
BITMAP
0010
0038
0078
01FC
01E0
0100
0000
BFF0
7FC0
3FC0
3FC0
3FC0
1FC0
1FC0
3FC0
1FC0
1F80
1FC0
3FC0
3FC0
39C0
3FC0
3F80
3F80
3980
3980
3880
ENDCHAR
STARTCHAR acircumflex
ENCODING 226
SWIDTH 479 0
DWIDTH 12 0
BBX 12 30 0 -2
BITMAP
0F00
1F80
1F80
3FC0
39C0
70E0
60F0
6060
0000
0000
BFF0
7FC0
3FC0
3FC0
3FC0
1FC0
1FC0
3FC0
1FC0
1F80
1FC0
3FC0
3FC0
39C0
3FC0
3F80
3F80
3980
3980
3880
ENDCHAR
STARTCHAR atilde
ENCODING 227
SWIDTH 479 0
DWIDTH 12 0
BBX 12 27 0 -2
BITMAP
0100
61C0
F7E0
7FE0
3FE0
1880
0000
BFF0
7FC0
3FC0
3FC0
3FC0
1FC0
1FC0
3FC0
1FC0
1F80
1FC0
3FC0
3FC0
39C0
3FC0
3F80
3F80
3980
3980
3880
ENDCHAR
STARTCHAR adieresis
ENCODING 228
SWIDTH 479 0
DWIDTH 12 0
BBX 12 27 0 -2
BITMAP
F9F0
F9F0
F9F0
F9F0
F9F0
F9D0
0000
BFF0
7FC0
3FC0
3FC0
3FC0
1FC0
1FC0
3FC0
1FC0
1F80
1FC0
3FC0
3FC0
39C0
3FC0
3F80
3F80
3980
3980
3880
ENDCHAR
STARTCHAR aring
ENCODING 229
SWIDTH 479 0
DWIDTH 12 0
BBX 12 29 0 -2
BITMAP
0700
1F80
19C0
18C0
1880
0F80
0F00
0000
0000
BFF0
7FC0
3FC0
3FC0
3FC0
1FC0
1FC0
3FC0
1FC0
1F80
1FC0
3FC0
3FC0
39C0
3FC0
3F80
3F80
3980
3980
3880
ENDCHAR
STARTCHAR ae
ENCODING 230
SWIDTH 755 0
DWIDTH 18 0
BBX 18 20 0 -2
BITMAP
BFFC00
7FFFC0
3FFF80
1FFF00
1FFF00
1FFE00
1FFE00
1FFE00
1FE600
1FE000
1FE000
1DFC00
3DFC00
3DFC00
3FE000
3FE000
1FFC00
3DFC00
39BC00
188400
ENDCHAR
STARTCHAR ccedilla
ENCODING 231
SWIDTH 534 0
DWIDTH 13 0
BBX 11 27 1 -9
BITMAP
0F00
3FC0
7FE0
FFE0
FFE0
FFE0
FFE0
FFE0
FFE0
F9E0
79E0
7800
7800
7900
79C0
7BC0
3F80
3F80
2F00
0300
0300
0600
07C0
0180
0080
0780
0780
ENDCHAR
STARTCHAR egrave
ENCODING 232
SWIDTH 632 0
DWIDTH 15 0
BBX 15 27 0 -2
BITMAP
3000
3800
7C00
FF00
0F00
0100
0000
03E0
FFFE
7FFC
3FF8
3FF8
3FF8
1FF0
1FF0
1E30
1E00
1E00
0FE0
0FE0
0FE0
0E00
0E00
0FE0
0FE0
09E0
0820
ENDCHAR
STARTCHAR eacute
ENCODING 233
SWIDTH 632 0
DWIDTH 15 0
BBX 16 27 0 -2
BITMAP
000C
001C
003E
007F
00F0
0080
0000
03E0
FFFE
7FFC
3FF8
3FF8
3FF8
1FF0
1FF0
1E30
1E00
1E00
0FE0
0FE0
0FE0
0E00
0E00
0FE0
0FE0
09E0
0820
ENDCHAR
STARTCHAR ecircumflex
ENCODING 234
SWIDTH 632 0
DWIDTH 15 0
BBX 15 29 0 -2
BITMAP
07C0
0FC0
0FE0
0FE0
1CF0
1C70
3838
3010
0000
03E0
FFFE
7FFC
3FF8
3FF8
3FF8
1FF0
1FF0
1E30
1E00
1E00
0FE0
0FE0
0FE0
0E00
0E00
0FE0
0FE0
09E0
0820
ENDCHAR
STARTCHAR edieresis
ENCODING 235
SWIDTH 632 0
DWIDTH 15 0
BBX 15 27 0 -2
BITMAP
3CF8
3CF8
3CF8
3CFC
3CF8
3CE8
0000
03E0
FFFE
7FFC
3FF8
3FF8
3FF8
1FF0
1FF0
1E30
1E00
1E00
0FE0
0FE0
0FE0
0E00
0E00
0FE0
0FE0
09E0
0820
ENDCHAR
STARTCHAR igrave
ENCODING 236
SWIDTH 411 0
DWIDTH 10 0
BBX 11 26 -2 -1
BITMAP
2000
7000
7C00
FE00
1F00
0100
0000
2FC0
1FE0
0FC0
07C0
07C0
07C0
0780
0780
0780
0780
0780
0780
0780
0380
0380
0380
0380
0380
0080
ENDCHAR
STARTCHAR iacute
ENCODING 237
SWIDTH 411 0
DWIDTH 10 0
BBX 13 26 0 -1
BITMAP
0020
00E0
01F0
03F8
07C0
0400
0000
BF00
7F80
3F00
1F00
1F00
1F00
1E00
1E00
1E00
1E00
1E00
1E00
1E00
0E00
0E00
0E00
0E00
0E00
0200
ENDCHAR
STARTCHAR icircumflex
ENCODING 238
SWIDTH 411 0
DWIDTH 10 0
BBX 11 28 0 -1
BITMAP
1F00
3F00
3F80
3F80
73C0
71C0
E0E0
C040
0000
BF00
7F80
3F00
1F00
1F00
1F00
1E00
1E00
1E00
1E00
1E00
1E00
1E00
0E00
0E00
0E00
0E00
0E00
0200
ENDCHAR
STARTCHAR idieresis
ENCODING 239
SWIDTH 411 0
DWIDTH 10 0
BBX 12 26 -1 -1
BITMAP
F9F0
F9F0
F9F0
F9F0
F9F0
F9F0
0000
5F80
3FC0
1F80
0F80
0F80
0F80
0F00
0F00
0F00
0F00
0F00
0F00
0F00
0700
0700
0700
0700
0700
0100
ENDCHAR
STARTCHAR eth
ENCODING 240
SWIDTH 530 0
DWIDTH 13 0
BBX 12 22 1 -4
BITMAP
0380
7FC0
7FE0
7FF0
3FF0
3FF0
3FF0
3FF0
3EF0
1CF0
FFE0
FF60
1CE0
1CE0
1CC0
1FC0
1FC0
1BC0
1380
1300
1200
0200
ENDCHAR
STARTCHAR ntilde
ENCODING 241
SWIDTH 664 0
DWIDTH 16 0
BBX 16 28 0 -3
BITMAP
0040
1870
3DF8
1FF8
0FF8
0620
0000
FE61
7E7E
7F3C
3F3C
3FBC
3FFC
3FF8
3FF8
3FF8
3FF8
1FF8
1FF8
1DF8
1DF0
1DF0
1CF0
1DF0
1CE0
0CE0
00A0
0040
ENDCHAR
STARTCHAR ograve
ENCODING 242
SWIDTH 545 0
DWIDTH 13 0
BBX 14 27 -1 -2
BITMAP
3000
3800
7C00
FF00
0F00
0100
0000
03C0
0FF0
1FF0
3FFC
3FF8
3FF8
3FFC
3FFC
3EFC
3CF8
3CF8
1C78
1C78
1CF0
1EF0
1EF0
0FF0
0FE0
02E0
00A0
ENDCHAR
STARTCHAR oacute
ENCODING 243
SWIDTH 545 0
DWIDTH 13 0
BBX 14 27 1 -2
BITMAP
0030
0070
00F8
01FC
03C0
0200
0000
0F00
3FC0
7FC0
FFF0
FFE0
FFE0
FFF0
FFF0
FBF0
F3E0
F3E0
71E0
71E0
73C0
7BC0
7BC0
3FC0
3F80
0B80
0280
ENDCHAR
STARTCHAR ocircumflex
ENCODING 244
SWIDTH 545 0
DWIDTH 13 0
BBX 12 29 1 -2
BITMAP
1F00
3F00
3F80
7F80
73C0
71C0
E0E0
C0C0
0000
0F00
3FC0
7FC0
FFF0
FFE0
FFE0
FFF0
FFF0
FBF0
F3E0
F3E0
71E0
71E0
73C0
7BC0
7BC0
3FC0
3F80
0B80
0280
ENDCHAR
STARTCHAR otilde
ENCODING 245
SWIDTH 545 0
DWIDTH 13 0
BBX 13 27 0 -2
BITMAP
0100
31C0
FFE0
7FF0
3FE0
1840
0000
0780
1FE0
3FE0
7FF8
7FF0
7FF0
7FF8
7FF8
7DF8
79F0
79F0
38F0
38F0
39E0
3DE0
3DE0
1FE0
1FC0
05C0
0140
ENDCHAR
STARTCHAR odieresis
ENCODING 246
SWIDTH 545 0
DWIDTH 13 0
BBX 12 27 1 -2
BITMAP
F3E0
F3E0
F3E0
F3E0
F3E0
F3A0
0000
0F00
3FC0
7FC0
FFF0
FFE0
FFE0
FFF0
FFF0
FBF0
F3E0
F3E0
71E0
71E0
73C0
7BC0
7BC0
3FC0
3F80
0B80
0280
ENDCHAR
STARTCHAR oslash
ENCODING 248
SWIDTH 676 0
DWIDTH 16 0
BBX 16 20 0 -2
BITMAP
0780
1FE3
3FE6
7FFC
7FF8
7FF0
7FF0
7FF0
7DF0
39F0
3AF0
3CF0
38F0
38E0
1DE0
3DE0
5FE0
9FC0
85C0
0140
ENDCHAR
STARTCHAR ugrave
ENCODING 249
SWIDTH 708 0
DWIDTH 17 0
BBX 17 25 0 0
BITMAP
080000
1C0000
1E0000
3F8000
07C000
008000
000000
0F0000
FF3E00
3F3F80
3F3E00
3F3F00
1F3E00
1F3E00
1F3C00
1F3C00
1F3C00
1F3C00
1F3C00
1F3C00
0F3800
0F7800
0FF800
07F800
037000
ENDCHAR
STARTCHAR uacute
ENCODING 250
SWIDTH 708 0
DWIDTH 17 0
BBX 17 25 0 0
BITMAP
000600
000E00
001F00
003F80
007800
004000
000000
0F0000
FF3E00
3F3F80
3F3E00
3F3F00
1F3E00
1F3E00
1F3C00
1F3C00
1F3C00
1F3C00
1F3C00
1F3C00
0F3800
0F7800
0FF800
07F800
037000
ENDCHAR
STARTCHAR ucircumflex
ENCODING 251
SWIDTH 708 0
DWIDTH 17 0
BBX 17 27 0 0
BITMAP
03E000
03E000
07F000
07F000
0F7800
0E3800
1C1C00
080800
000000
0F0000
FF3E00
3F3F80
3F3E00
3F3F00
1F3E00
1F3E00
1F3C00
1F3C00
1F3C00
1F3C00
1F3C00
1F3C00
0F3800
0F7800
0FF800
07F800
037000
ENDCHAR
STARTCHAR udieresis
ENCODING 252
SWIDTH 708 0
DWIDTH 17 0
BBX 17 25 0 0
BITMAP
1F7E00
1F3C00
1F3C00
1F3E00
1E3E00
1E3400
000000
0F0000
FF3E00
3F3F80
3F3E00
3F3F00
1F3E00
1F3E00
1F3C00
1F3C00
1F3C00
1F3C00
1F3C00
1F3C00
0F3800
0F7800
0FF800
07F800
037000
ENDCHAR
STARTCHAR yacute
ENCODING 253
SWIDTH 604 0
DWIDTH 15 0
BBX 16 27 0 -2
BITMAP
000C
001C
003E
00FF
00F0
0080
0000
9C40
7CFC
3EF8
0EF0
0EE0
07C0
07C0
07C0
07C0
03C0
03C0
03C0
03C0
0380
03C0
03C0
0380
0380
0380
0200
ENDCHAR
STARTCHAR thorn
ENCODING 254
SWIDTH 498 0
DWIDTH 12 0
BBX 11 25 0 -3
BITMAP
FE00
7C00
7C00
7C00
7D80
7FE0
7FE0
7FE0
7FE0
7FE0
7FE0
3FE0
3CE0
3CE0
3CE0
3CE0
3FC0
1FC0
1C00
1C00
1C00
1E00
1600
1600
1400
ENDCHAR
STARTCHAR ydieresis
ENCODING 255
SWIDTH 604 0
DWIDTH 15 0
BBX 14 27 0 -2
BITMAP
3E7C
3E7C
3E7C
3E7C
3E7C
3E7C
0000
9C40
7CFC
3EF8
0EF0
0EE0
07C0
07C0
07C0
07C0
03C0
03C0
03C0
03C0
0380
03C0
03C0
0380
0380
0380
0200
ENDCHAR
STARTCHAR Amacron
ENCODING 256
SWIDTH 494 0
DWIDTH 12 0
BBX 11 27 0 -5
BITMAP
3FC0
3FC0
3FC0
0000
0000
FFE0
1FC0
3F80
1F80
1F80
3F80
1F80
1F80
3F80
1B80
3B80
3B80
1F80
3F80
3F80
1F80
1B00
1B00
2B00
1B00
0100
0200
ENDCHAR
STARTCHAR amacron
ENCODING 257
SWIDTH 479 0
DWIDTH 12 0
BBX 12 25 0 -2
BITMAP
3FC0
3FC0
3FC0
0000
0000
BFF0
7FC0
3FC0
3FC0
3FC0
1FC0
1FC0
3FC0
1FC0
1F80
1FC0
3FC0
3FC0
39C0
3FC0
3F80
3F80
3980
3980
3880
ENDCHAR
STARTCHAR Abreve
ENCODING 258
SWIDTH 494 0
DWIDTH 12 0
BBX 12 31 0 -5
BITMAP
3840
1870
1CE0
1FE0
0FC0
05C0
0140
0000
0000
FFE0
1FC0
3F80
1F80
1F80
3F80
1F80
1F80
3F80
1B80
3B80
3B80
1F80
3F80
3F80
1F80
1B00
1B00
2B00
1B00
0100
0200
ENDCHAR
STARTCHAR abreve
ENCODING 259
SWIDTH 479 0
DWIDTH 12 0
BBX 12 28 0 -2
BITMAP
3840
18F0
1CE0
1FE0
0FC0
05C0
0140
0000
BFF0
7FC0
3FC0
3FC0
3FC0
1FC0
1FC0
3FC0
1FC0
1F80
1FC0
3FC0
3FC0
39C0
3FC0
3F80
3F80
3980
3980
3880
ENDCHAR
STARTCHAR Aogonek
ENCODING 260
SWIDTH 494 0
DWIDTH 12 0
BBX 11 27 0 -10
BITMAP
FFE0
1FC0
3F80
1F80
1F80
3F80
1F80
1F80
3F80
1B80
3B80
3B80
1F80
3F80
3F80
1F80
1B00
1B00
2B00
1F00
0700
0700
0700
0780
07E0
03E0
01E0
ENDCHAR
STARTCHAR aogonek
ENCODING 261
SWIDTH 479 0
DWIDTH 12 0
BBX 12 27 0 -9
BITMAP
BFF0
7FC0
3FC0
3FC0
3FC0
1FC0
1FC0
3FC0
1FC0
1F80
1FC0
3FC0
3FC0
39C0
3FC0
3F80
3F80
3980
3980
3980
0180
0380
0380
01F0
01F0
00F0
0030
ENDCHAR
STARTCHAR Cacute
ENCODING 262
SWIDTH 504 0
DWIDTH 12 0
BBX 12 28 1 -3
BITMAP
0040
00C0
03E0
07F0
0F80
0800
0000
1F00
3F80
7FC0
FFC0
FFC0
FFC0
FFC0
FFC0
FBC0
FBC0
FBC0
F000
7000
7300
73C0
7B80
7F80
3F00
1600
1600
1200
ENDCHAR
STARTCHAR cacute
ENCODING 263
SWIDTH 534 0
DWIDTH 13 0
BBX 13 27 1 -2
BITMAP
0060
00E0
01F0
07F8
0780
0400
0000
0F00
3FC0
7FE0
FFE0
FFE0
FFE0
FFE0
FFE0
FFE0
F9E0
79E0
7800
7800
7900
79C0
7BC0
3F80
3F80
2F00
0200
ENDCHAR
STARTCHAR Ccircumflex
ENCODING 264
SWIDTH 504 0
DWIDTH 12 0
BBX 11 30 1 -3
BITMAP
1F00
1F00
3F80
3F80
7BC0
71C0
E0E0
4040
0000
1F00
3F80
7FC0
FFC0
FFC0
FFC0
FFC0
FFC0
FBC0
FBC0
FBC0
F000
7000
7300
73C0
7B80
7F80
3F00
1600
1600
1200
ENDCHAR
STARTCHAR ccircumflex
ENCODING 265
SWIDTH 534 0
DWIDTH 13 0
BBX 12 30 1 -2
BITMAP
0F00
1F80
1FC0
3FC0
39E0
30E0
7070
6060
0000
0000
0F00
3FC0
7FE0
FFE0
FFE0
FFE0
FFE0
FFE0
FFE0
F9E0
79E0
7800
7800
7900
79C0
7BC0
3F80
3F80
2F00
0200
ENDCHAR
STARTCHAR Cdotaccent
ENCODING 266
SWIDTH 504 0
DWIDTH 12 0
BBX 10 30 1 -3
BITMAP
1F80
3F00
3F00
3F80
1F80
1F80
1F00
1000
0000
1F00
3F80
7FC0
FFC0
FFC0
FFC0
FFC0
FFC0
FBC0
FBC0
FBC0
F000
7000
7300
73C0
7B80
7F80
3F00
1600
1600
1200
ENDCHAR
STARTCHAR cdotaccent
ENCODING 267
SWIDTH 534 0
DWIDTH 13 0
BBX 11 29 1 -2
BITMAP
3F80
1F80
1F80
1F80
1F80
1F80
1F80
1000
0000
0F00
3FC0
7FE0
FFE0
FFE0
FFE0
FFE0
FFE0
FFE0
F9E0
79E0
7800
7800
7900
79C0
7BC0
3F80
3F80
2F00
0200
ENDCHAR
STARTCHAR Ccaron
ENCODING 268
SWIDTH 504 0
DWIDTH 12 0
BBX 11 31 1 -3
BITMAP
4080
E0C0
E1E0
73C0
7BC0
7F80
3F00
3F00
1E00
0000
1F00
3F80
7FC0
FFC0
FFC0
FFC0
FFC0
FFC0
FBC0
FBC0
FBC0
F000
7000
7300
73C0
7B80
7F80
3F00
1600
1600
1200
ENDCHAR
STARTCHAR ccaron
ENCODING 269
SWIDTH 534 0
DWIDTH 13 0
BBX 11 31 1 -2
BITMAP
2040
70E0
70E0
79E0
39C0
3FC0
1F80
1F80
0F00
0000
0000
0F00
3FC0
7FE0
FFE0
FFE0
FFE0
FFE0
FFE0
FFE0
F9E0
79E0
7800
7800
7900
79C0
7BC0
3F80
3F80
2F00
0200
ENDCHAR
STARTCHAR Dcaron
ENCODING 270
SWIDTH 522 0
DWIDTH 13 0
BBX 13 32 0 -4
BITMAP
1020
3830
3C78
1CF0
1EF0
0FE0
0FE0
0FC0
07C0
0000
0080
FFC0
7FE0
7FF0
3FF0
3FF0
3FF0
3FF0
3EF0
1C70
1C60
1C60
1C60
1CE0
1CE0
1FE0
1FC0
1BC0
1380
1300
1200
0200
ENDCHAR
STARTCHAR dcaron
ENCODING 271
SWIDTH 522 0
DWIDTH 13 0
BBX 13 32 0 -4
BITMAP
1020
3830
3C78
1CF0
1EF0
0FE0
0FE0
0FC0
07C0
0000
0080
FFC0
7FE0
7FF0
3FF0
3FF0
3FF0
3FF0
3EF0
1C70
1C60
1C60
1C60
1CE0
1CE0
1FE0
1FC0
1BC0
1380
1300
1200
0200
ENDCHAR
STARTCHAR Eth.dup2
ENCODING 272
SWIDTH 530 0
DWIDTH 13 0
BBX 12 22 1 -4
BITMAP
0380
7FC0
7FE0
7FF0
3FF0
3FF0
3FF0
3FF0
3EF0
1CF0
FFE0
FF60
1CE0
1CE0
1CC0
1FC0
1FC0
1BC0
1380
1300
1200
0200
ENDCHAR
STARTCHAR Emacron
ENCODING 274
SWIDTH 570 0
DWIDTH 14 0
BBX 12 24 1 -2
BITMAP
3FC0
3FC0
3FC0
0000
0F00
FFF0
7FE0
7FE0
7FE0
7FC0
7FC0
7FC0
7840
3800
3F80
3F00
3F00
3880
3800
3F80
3F80
2780
2480
0100
ENDCHAR
STARTCHAR emacron
ENCODING 275
SWIDTH 632 0
DWIDTH 15 0
BBX 15 24 0 -2
BITMAP
1FE0
1FE0
1FE0
0000
03E0
FFFE
7FFC
3FF8
3FF8
3FF8
1FF0
1FF0
1E30
1E00
1E00
0FE0
0FE0
0FE0
0E00
0E00
0FE0
0FE0
09E0
0820
ENDCHAR
STARTCHAR Ebreve
ENCODING 276
SWIDTH 570 0
DWIDTH 14 0
BBX 12 28 1 -2
BITMAP
3890
18E0
1CE0
1FE0
0FC0
05C0
0140
0000
0F00
FFF0
7FE0
7FE0
7FE0
7FC0
7FC0
7FC0
7840
3800
3F80
3F00
3F00
3880
3800
3F80
3F80
2780
2480
0100
ENDCHAR
STARTCHAR ebreve
ENCODING 277
SWIDTH 632 0
DWIDTH 15 0
BBX 15 28 0 -2
BITMAP
0E10
061C
0738
07F8
03F0
0170
0030
0000
03E0
FFFE
7FFC
3FF8
3FF8
3FF8
1FF0
1FF0
1E30
1E00
1E00
0FE0
0FE0
0FE0
0E00
0E00
0FE0
0FE0
09E0
0820
ENDCHAR
STARTCHAR Edotaccent
ENCODING 278
SWIDTH 570 0
DWIDTH 14 0
BBX 12 29 1 -2
BITMAP
3F80
1F80
1F80
1F80
1F80
1F80
1F80
1000
0000
0F00
FFF0
7FE0
7FE0
7FE0
7FC0
7FC0
7FC0
7840
3800
3F80
3F00
3F00
3880
3800
3F80
3F80
2780
2480
0100
ENDCHAR
STARTCHAR edotaccent
ENCODING 279
SWIDTH 632 0
DWIDTH 15 0
BBX 15 29 0 -2
BITMAP
07C0
0FC0
0FC0
0FE0
0FE0
0FC0
07C0
0400
0000
03E0
FFFE
7FFC
3FF8
3FF8
3FF8
1FF0
1FF0
1E30
1E00
1E00
0FE0
0FE0
0FE0
0E00
0E00
0FE0
0FE0
09E0
0820
ENDCHAR
STARTCHAR Eogonek
ENCODING 280
SWIDTH 513 0
DWIDTH 12 0
BBX 12 26 1 -8
BITMAP
0F00
FFF0
7FE0
7FE0
7FE0
7FC0
7FC0
7FC0
7840
3800
3F80
3F00
3F00
3880
3800
3F80
3F80
3F80
2700
0700
0600
0700
0700
07E0
03E0
00E0
ENDCHAR
STARTCHAR eogonek
ENCODING 281
SWIDTH 632 0
DWIDTH 15 0
BBX 15 26 0 -8
BITMAP
03E0
FFFE
7FFC
3FF8
3FF8
3FF8
1FF0
1FF0
1E30
1E00
1E00
0FE0
0FE0
0FE0
0E00
0E00
0FE0
0FE0
09C0
09C0
01C0
01C0
01E0
00FC
00F8
0038
ENDCHAR
STARTCHAR Ecaron
ENCODING 282
SWIDTH 570 0
DWIDTH 14 0
BBX 12 30 1 -2
BITMAP
2040
7060
78F0
39E0
3DE0
1FC0
1FC0
1F80
0F80
0000
0F00
FFF0
7FE0
7FE0
7FE0
7FC0
7FC0
7FC0
7840
3800
3F80
3F00
3F00
3880
3800
3F80
3F80
2780
2480
0100
ENDCHAR
STARTCHAR ecaron
ENCODING 283
SWIDTH 632 0
DWIDTH 15 0
BBX 15 30 0 -2
BITMAP
0410
0C18
1E3C
0E38
0F78
07F0
07F0
03E0
03E0
0000
03E0
FFFE
7FFC
3FF8
3FF8
3FF8
1FF0
1FF0
1E30
1E00
1E00
0FE0
0FE0
0FE0
0E00
0E00
0FE0
0FE0
09E0
0820
ENDCHAR
STARTCHAR Gcircumflex
ENCODING 284
SWIDTH 499 0
DWIDTH 12 0
BBX 12 29 0 -2
BITMAP
1F00
1F80
1F80
3FC0
3BC0
71E0
60E0
C040
0000
0E00
3F80
7FE0
7FE0
7FE0
7FF0
7FE0
7FE0
7BE0
79E0
39E0
3A00
3BE0
3BE0
3AE0
3DE0
3FE0
1FC0
0FC0
0A80
ENDCHAR
STARTCHAR gcircumflex
ENCODING 285
SWIDTH 546 0
DWIDTH 13 0
BBX 12 29 1 -2
BITMAP
1F00
3F00
3F80
3F80
73C0
71C0
E0E0
C040
0000
0E00
7F80
FFE0
FFE0
FFE0
FFF0
FFF0
FFF0
FBE0
F9E0
F1E0
7000
7380
7BE0
7BE0
39E0
3FE0
3FE0
1FC0
0A80
ENDCHAR
STARTCHAR Gbreve
ENCODING 286
SWIDTH 499 0
DWIDTH 12 0
BBX 11 28 1 -2
BITMAP
7100
71C0
73C0
7F80
3F80
0B00
0280
0000
1C00
7F00
FFC0
FFC0
FFC0
FFE0
FFC0
FFC0
F7C0
F3C0
73C0
7400
77C0
77C0
75C0
7BC0
7FC0
3F80
1F80
1500
ENDCHAR
STARTCHAR gbreve
ENCODING 287
SWIDTH 546 0
DWIDTH 13 0
BBX 12 28 1 -2
BITMAP
70A0
31C0
39C0
3FC0
1F80
0B80
0280
0000
0E00
7F80
FFE0
FFE0
FFE0
FFF0
FFF0
FFF0
FBE0
F9E0
F1E0
7000
7380
7BE0
7BE0
39E0
3FE0
3FE0
1FC0
0A80
ENDCHAR
STARTCHAR Gdotaccent
ENCODING 288
SWIDTH 499 0
DWIDTH 12 0
BBX 11 29 1 -2
BITMAP
7F00
3F00
3F00
3F00
3F00
3F00
3F00
2000
0000
1C00
7F00
FFC0
FFC0
FFC0
FFE0
FFC0
FFC0
F7C0
F3C0
73C0
7400
77C0
77C0
75C0
7BC0
7FC0
3F80
1F80
1500
ENDCHAR
STARTCHAR gdotaccent
ENCODING 289
SWIDTH 546 0
DWIDTH 13 0
BBX 12 29 1 -2
BITMAP
1F00
3F00
3F00
3F80
3F00
1F00
1F00
1000
0000
0E00
7F80
FFE0
FFE0
FFE0
FFF0
FFF0
FFF0
FBE0
F9E0
F1E0
7000
7380
7BE0
7BE0
39E0
3FE0
3FE0
1FC0
0A80
ENDCHAR
STARTCHAR Gcommaaccent
ENCODING 290
SWIDTH 499 0
DWIDTH 12 0
BBX 11 32 1 -14
BITMAP
1C00
7F00
FFC0
FFC0
FFC0
FFE0
FFC0
FFC0
F7C0
F3C0
73C0
7400
77C0
77C0
75C0
7BC0
7FC0
3F80
1F80
1500
0000
0000
1F80
1F80
1F80
1F80
1F80
1F80
0380
0300
0300
0300
ENDCHAR
STARTCHAR Hcircumflex
ENCODING 292
SWIDTH 726 0
DWIDTH 17 0
BBX 16 32 0 -5
BITMAP
03E0
07E0
07F0
07F0
0F78
0E38
1C1C
0808
0000
0328
FF3F
3E3F
3E3E
3E3E
3E3E
1E3E
1E3C
1E3C
1E3C
1FFC
1FF8
0FF8
0E78
0E78
0E78
0E78
0E78
1870
0030
0040
0040
0080
ENDCHAR
STARTCHAR hcircumflex
ENCODING 293
SWIDTH 730 0
DWIDTH 18 0
BBX 16 30 0 -2
BITMAP
03E0
03E0
07F0
07F0
0F78
0E38
1C1C
0808
0000
0000
073E
FE3F
3E3F
3E3E
3E3E
3E3E
1E3E
1E3E
1E3C
1E3C
1FFC
0FFC
0FF8
0E78
0E78
0E78
0E78
0E78
0878
0010
ENDCHAR
STARTCHAR hbar
ENCODING 295
SWIDTH 704 0
DWIDTH 17 0
BBX 17 20 0 -2
BITMAP
077E80
FE7F00
3E7E00
3E3E00
3FFE00
3FFC00
1FFC00
1FFC00
1E3C00
1E3800
1FF800
0FF800
0FF800
0E7800
0E7800
0E7800
0E7800
0E7800
087800
001000
ENDCHAR
STARTCHAR Itilde
ENCODING 296
SWIDTH 401 0
DWIDTH 10 0
BBX 11 26 -1 -1
BITMAP
0100
6380
FFC0
FFE0
7FC0
3880
0000
7FC0
3F80
1F80
1F80
0F80
0F80
0F80
0F00
0F00
0F00
0F00
0F00
0F00
0F00
0F00
0F00
0700
0700
0600
ENDCHAR
STARTCHAR itilde
ENCODING 297
SWIDTH 411 0
DWIDTH 10 0
BBX 11 26 -1 -1
BITMAP
0100
6380
FFC0
FFE0
7FC0
3880
0000
5F80
3FC0
1F80
0F80
0F80
0F80
0F00
0F00
0F00
0F00
0F00
0F00
0F00
0700
0700
0700
0700
0700
0100
ENDCHAR
STARTCHAR Imacron
ENCODING 298
SWIDTH 401 0
DWIDTH 10 0
BBX 9 23 0 -1
BITMAP
7F80
7F80
FF80
0000
FF80
7F00
3F00
3F00
1F00
1F00
1F00
1E00
1E00
1E00
1E00
1E00
1E00
1E00
1E00
1E00
0E00
0E00
0C00
ENDCHAR
STARTCHAR imacron
ENCODING 299
SWIDTH 411 0
DWIDTH 10 0
BBX 9 24 0 -1
BITMAP
7F80
7F80
7F80
0000
0000
BF00
7F80
3F00
1F00
1F00
1F00
1E00
1E00
1E00
1E00
1E00
1E00
1E00
0E00
0E00
0E00
0E00
0E00
0200
ENDCHAR
STARTCHAR Ibreve
ENCODING 300
SWIDTH 401 0
DWIDTH 10 0
BBX 10 27 0 -1
BITMAP
7100
71C0
73C0
7F80
3F80
0B00
0300
0000
FF80
7F00
3F00
3F00
1F00
1F00
1F00
1E00
1E00
1E00
1E00
1E00
1E00
1E00
1E00
1E00
0E00
0E00
0C00
ENDCHAR
STARTCHAR ibreve
ENCODING 301
SWIDTH 411 0
DWIDTH 10 0
BBX 10 27 0 -1
BITMAP
7100
71C0
73C0
7F80
3F80
1300
0300
0000
BF00
7F80
3F00
1F00
1F00
1F00
1E00
1E00
1E00
1E00
1E00
1E00
1E00
0E00
0E00
0E00
0E00
0E00
0200
ENDCHAR
STARTCHAR Iogonek
ENCODING 302
SWIDTH 401 0
DWIDTH 10 0
BBX 9 27 0 -9
BITMAP
FF80
7F00
3F00
3F00
1F00
1F00
1F00
1E00
1E00
1E00
1E00
1E00
1E00
1E00
1E00
1E00
0E00
0E00
1C00
1C00
1800
1800
1800
1C00
1F80
1F80
0F80
ENDCHAR
STARTCHAR iogonek
ENCODING 303
SWIDTH 412 0
DWIDTH 10 0
BBX 9 27 0 -9
BITMAP
BF00
7F80
3F00
1F00
1F00
1F00
1E00
1E00
1E00
1E00
1E00
1E00
1E00
0E00
0E00
0E00
0E00
0E00
1E00
1C00
1800
1800
1800
1C00
1F80
0F80
0780
ENDCHAR
STARTCHAR Idotaccent
ENCODING 304
SWIDTH 401 0
DWIDTH 10 0
BBX 9 28 0 -1
BITMAP
3F00
7F00
3F00
3F00
3F00
3F00
3F00
2000
0000
FF80
7F00
3F00
3F00
1F00
1F00
1F00
1E00
1E00
1E00
1E00
1E00
1E00
1E00
1E00
1E00
0E00
0E00
0C00
ENDCHAR
STARTCHAR dotlessi
ENCODING 305
SWIDTH 411 0
DWIDTH 10 0
BBX 9 19 0 -1
BITMAP
BF00
7F80
3F00
1F00
1F00
1F00
1E00
1E00
1E00
1E00
1E00
1E00
1E00
0E00
0E00
0E00
0E00
0E00
0200
ENDCHAR
STARTCHAR IJ
ENCODING 306
SWIDTH 908 0
DWIDTH 22 0
BBX 21 19 0 -1
BITMAP
FF83C0
7F81F8
3F01F0
3F01F0
1F00F0
1F01E0
1F01E0
1F01E0
1F01E0
1E01E0
1F01E0
1F01E0
1E1DC0
1E3DC0
1E1DC0
0E3DC0
0E1FC0
0A0F80
0B0580
ENDCHAR
STARTCHAR ij
ENCODING 307
SWIDTH 901 0
DWIDTH 22 0
BBX 21 19 0 -1
BITMAP
BF4780
7F83F8
3F83F0
1F01F0
1F01F0
1F01E0
1F01E0
1F01E0
1E01E0
1E01E0
1E01E0
1F01E0
1E1DE0
0E3DE0
0E1DE0
0E1FE0
0E1FC0
0E0FC0
020140
ENDCHAR
STARTCHAR Jcircumflex
ENCODING 308
SWIDTH 455 0
DWIDTH 11 0
BBX 13 28 -1 -1
BITMAP
07C0
07C0
0FE0
0FF0
1EF0
1C78
1838
3010
0000
0780
07E0
07C0
03C0
03C0
03C0
0380
0780
0780
0780
0380
0780
7780
F780
7700
7700
7F00
3700
1600
ENDCHAR
STARTCHAR jcircumflex
ENCODING 309
SWIDTH 458 0
DWIDTH 11 0
BBX 13 28 -1 -1
BITMAP
07C0
07E0
0FE0
0FF0
1EF0
1C78
1838
3010
0000
0F00
0FF0
07E0
07C0
07C0
07C0
07C0
07C0
07C0
07C0
03C0
0380
F380
7380
7380
7F80
3F80
3F00
0280
ENDCHAR
STARTCHAR Kcommaaccent
ENCODING 310
SWIDTH 580 0
DWIDTH 14 0
BBX 14 31 0 -13
BITMAP
BAC0
7EFC
3EF0
3EE0
1EC0
1FC0
1FC0
1FC0
1FC0
1FC0
0FC0
0FC0
0FC0
0FC0
0FC0
0CC0
0EE0
0EE0
0A60
0000
0000
07C0
07E0
07E0
07C0
07E0
07E0
00C0
00C0
00C0
00C0
ENDCHAR
STARTCHAR kcommaaccent
ENCODING 311
SWIDTH 636 0
DWIDTH 15 0
BBX 15 31 0 -13
BITMAP
0578
FE7E
3E78
3EF0
1EE0
1EE0
1EE0
1FC0
0FC0
0FC0
0FC0
0FC0
0FC0
0FC0
07E0
0660
0670
0670
0540
0000
0000
03E0
03E0
03E0
03E0
07E0
03E0
0060
0060
00E0
00E0
ENDCHAR
STARTCHAR kgreenlandic
ENCODING 312
SWIDTH 636 0
DWIDTH 15 0
BBX 15 19 0 -1
BITMAP
0578
FE7E
3E78
3EF0
1EE0
1EE0
1EE0
1FC0
0FC0
0FC0
0FC0
0FC0
0FC0
0FC0
07E0
0660
0670
0670
0540
ENDCHAR
STARTCHAR Lacute
ENCODING 313
SWIDTH 416 0
DWIDTH 10 0
BBX 13 27 0 -2
BITMAP
0020
0060
01F0
03F8
07C0
0400
0000
FD80
7E00
3E00
3C00
3E00
3E00
3C00
3C00
3C00
3C00
3E00
3C00
1C00
1C00
1E20
1FE0
1FC0
1FC0
0BC0
0A80
ENDCHAR
STARTCHAR lacute
ENCODING 314
SWIDTH 438 0
DWIDTH 11 0
BBX 13 27 0 -2
BITMAP
0020
0070
00F8
03F8
03C0
0200
0000
1FC0
FF00
3F00
3E00
3E00
3E00
1E00
1E00
1E00
1E00
1E00
1E00
1E00
0E00
0F00
0FE0
0FE0
0EC0
08C0
0840
ENDCHAR
STARTCHAR Lcommaaccent
ENCODING 315
SWIDTH 416 0
DWIDTH 10 0
BBX 11 32 0 -14
BITMAP
FD80
7E00
3E00
3C00
3E00
3E00
3C00
3C00
3C00
3C00
3E00
3C00
1C00
1C00
1E20
1FE0
1FC0
1FC0
0BC0
0A80
0000
0000
1F00
1F00
1F80
1F00
1F80
1F80
0300
0300
0300
0700
ENDCHAR
STARTCHAR lcommaaccent
ENCODING 316
SWIDTH 438 0
DWIDTH 11 0
BBX 11 31 0 -13
BITMAP
1FC0
FF00
3F00
3E00
3E00
3E00
1E00
1E00
1E00
1E00
1E00
1E00
1E00
0E00
0F00
0FE0
0FE0
0EC0
08C0
0840
0000
1F80
1F80
1F80
1F80
1F80
1F80
0380
0380
0300
0300
ENDCHAR
STARTCHAR Lcaron
ENCODING 317
SWIDTH 714 0
DWIDTH 17 0
BBX 16 20 0 -2
BITMAP
FD80
7E3F
3E3F
3C3F
3E3F
3E3F
3C3F
3C3F
3C03
3C07
3E07
3E07
1C04
1C00
1E20
1FE0
1FC0
1FC0
0BC0
0A80
ENDCHAR
STARTCHAR lcaron
ENCODING 318
SWIDTH 782 0
DWIDTH 19 0
BBX 18 20 0 -2
BITMAP
1FCFC0
FF0FC0
3F0FC0
3E0FC0
3E0FC0
3E0FC0
1E0FC0
1E01C0
1E01C0
1E0180
1E0180
1E0200
1E0000
0E0000
0F0000
0FE000
0FE000
0EC000
08C000
084000
ENDCHAR
STARTCHAR Ldotaccent
ENCODING 319
SWIDTH 567 0
DWIDTH 14 0
BBX 15 20 0 -2
BITMAP
FD80
7E00
3E00
3C00
3EFE
3EFE
3C7E
3C7E
3C7E
3C7E
3E7E
3C00
1C00
1C00
1E20
1FE0
1FC0
1FC0
0BC0
0A80
ENDCHAR
STARTCHAR ldot
ENCODING 320
SWIDTH 660 0
DWIDTH 16 0
BBX 17 20 0 -2
BITMAP
1FC000
FF0000
3F0000
3E0000
3E0000
3E1F00
1E3F00
1E3F00
1E3F80
1E1F80
1E1F00
1E1F00
1E1000
0E0000
0F0000
0FE000
0FE000
0EC000
08C000
084000
ENDCHAR
STARTCHAR Lslash
ENCODING 321
SWIDTH 428 0
DWIDTH 10 0
BBX 11 20 0 -2
BITMAP
FD80
7E00
3E00
3C00
3E00
3E40
3FC0
3FE0
7FE0
FFE0
7F00
7C00
7C00
1C00
1E20
1FE0
1FC0
0FC0
0BC0
0A80
ENDCHAR
STARTCHAR lslash
ENCODING 322
SWIDTH 457 0
DWIDTH 11 0
BBX 12 20 0 -2
BITMAP
1FC0
FF00
3F00
3E00
1F20
1E60
1FE0
1FF0
3FF0
FFC0
7F00
7E00
2E00
0E00
0F10
0FE0
0FE0
0EE0
08C0
0840
ENDCHAR
STARTCHAR Nacute
ENCODING 323
SWIDTH 610 0
DWIDTH 15 0
BBX 15 29 1 -4
BITMAP
0018
0038
007C
00FE
01E0
0100
0000
0580
FDF8
7CF0
7CE0
7EE0
7EE0
7EE0
7FE0
3FE0
3FE0
3FE0
3FC0
3BC0
3BC0
3BC0
1BC0
19C0
19C0
19C0
15C0
1500
1500
ENDCHAR
STARTCHAR nacute
ENCODING 324
SWIDTH 664 0
DWIDTH 16 0
BBX 16 28 0 -3
BITMAP
0004
000E
001E
007F
0078
0040
0000
FE61
7E7E
7F3C
3F3C
3FBC
3FFC
3FF8
3FF8
3FF8
3FF8
1FF8
1FF8
1DF8
1DF0
1DF0
1CF0
1DF0
1CE0
0CE0
00A0
0040
ENDCHAR
STARTCHAR Ncommaaccent
ENCODING 325
SWIDTH 610 0
DWIDTH 15 0
BBX 13 34 1 -16
BITMAP
0580
FDF8
7CF0
7CE0
7EE0
7EE0
7EE0
7FE0
3FE0
3FE0
3FE0
3FC0
3BC0
3BC0
3BC0
1BC0
19C0
19C0
19C0
15C0
1500
1500
0000
0000
07C0
07C0
07C0
0FC0
0FC0
07C0
00C0
01C0
01C0
01C0
ENDCHAR
STARTCHAR ncommaaccent
ENCODING 326
SWIDTH 664 0
DWIDTH 16 0
BBX 16 32 0 -14
BITMAP
FE61
7E7E
7F3C
3F3C
3FBC
3FFC
3FF8
3FF8
3FF8
3FF8
1FF8
1FF8
1DF8
1DF0
1DF0
1CF0
1DF0
1CE0
0CE0
00A0
0040
0000
03F0
03F0
03F0
03F0
03F0
03F0
0070
0070
0060
0060
ENDCHAR
STARTCHAR Ncaron
ENCODING 327
SWIDTH 610 0
DWIDTH 15 0
BBX 13 32 1 -4
BITMAP
1040
3060
78F0
38E0
3DE0
1FC0
1FC0
0F80
0F80
0000
0580
FDF8
7CF0
7CE0
7EE0
7EE0
7EE0
7FE0
3FE0
3FE0
3FE0
3FC0
3BC0
3BC0
3BC0
1BC0
19C0
19C0
19C0
15C0
1500
1500
ENDCHAR
STARTCHAR ncaron
ENCODING 328
SWIDTH 664 0
DWIDTH 16 0
BBX 16 31 0 -3
BITMAP
0410
0C18
1E3C
0E38
0F78
07F0
07F0
03E0
03E0
0000
FE61
7E7E
7F3C
3F3C
3FBC
3FFC
3FF8
3FF8
3FF8
3FF8
1FF8
1FF8
1DF8
1DF0
1DF0
1CF0
1DF0
1CE0
0CE0
00A0
0040
ENDCHAR
STARTCHAR Omacron
ENCODING 332
SWIDTH 504 0
DWIDTH 12 0
BBX 11 24 1 -2
BITMAP
7F80
7F80
7F80
0000
0E00
3F80
7FC0
FFC0
FFC0
FFE0
FFC0
FFC0
F3C0
F3C0
F3C0
73C0
73C0
73C0
73C0
7B80
7F80
3F00
1300
1300
ENDCHAR
STARTCHAR omacron
ENCODING 333
SWIDTH 545 0
DWIDTH 13 0
BBX 12 24 1 -2
BITMAP
7F80
7F80
7F80
0000
0F00
3FC0
7FC0
FFF0
FFE0
FFE0
FFF0
FFF0
FBF0
F3E0
F3E0
71E0
71E0
73C0
7BC0
7BC0
3FC0
3F80
0B80
0280
ENDCHAR
STARTCHAR Obreve
ENCODING 334
SWIDTH 504 0
DWIDTH 12 0
BBX 11 28 1 -2
BITMAP
7100
71C0
39C0
3F80
3F80
0B80
0280
0000
0E00
3F80
7FC0
FFC0
FFC0
FFE0
FFC0
FFC0
F3C0
F3C0
F3C0
73C0
73C0
73C0
73C0
7B80
7F80
3F00
1300
1300
ENDCHAR
STARTCHAR obreve
ENCODING 335
SWIDTH 545 0
DWIDTH 13 0
BBX 12 28 1 -2
BITMAP
7100
31C0
39C0
3FC0
3F80
0B80
0280
0000
0F00
3FC0
7FC0
FFF0
FFE0
FFE0
FFF0
FFF0
FBF0
F3E0
F3E0
71E0
71E0
73C0
7BC0
7BC0
3FC0
3F80
0B80
0280
ENDCHAR
STARTCHAR Ohungarumlaut
ENCODING 336
SWIDTH 504 0
DWIDTH 12 0
BBX 12 29 1 -2
BITMAP
2080
39F0
7DE0
7BC0
7380
E300
C600
8200
0000
0E00
3F80
7FC0
FFC0
FFC0
FFE0
FFC0
FFC0
F3C0
F3C0
F3C0
73C0
73C0
73C0
73C0
7B80
7F80
3F00
1300
1300
ENDCHAR
STARTCHAR ohungarumlaut
ENCODING 337
SWIDTH 545 0
DWIDTH 13 0
BBX 12 29 1 -2
BITMAP
1080
38F0
3DF0
39E0
71C0
6380
E300
C200
0000
0F00
3FC0
7FC0
FFF0
FFE0
FFE0
FFF0
FFF0
FBF0
F3E0
F3E0
71E0
71E0
73C0
7BC0
7BC0
3FC0
3F80
0B80
0280
ENDCHAR
STARTCHAR OE
ENCODING 338
SWIDTH 789 0
DWIDTH 19 0
BBX 17 22 1 -4
BITMAP
0EFC00
3FFF80
7FFF00
FFFF00
FFFF00
FFFE00
FFFE00
FFFE00
F3E200
F3E000
F3FC00
73FC00
73FC00
73E400
73C000
7BFC00
7FFC00
3F3C00
133400
132400
0B2400
004000
ENDCHAR
STARTCHAR oe
ENCODING 339
SWIDTH 778 0
DWIDTH 19 0
BBX 17 20 1 -2
BITMAP
1E7800
3FFF80
7FFF00
FFFF00
FFFE00
FFFE00
FFFE00
FFFE00
FBEE00
F3E000
73E000
73F800
73F800
73F800
73C800
7BC000
3FFC00
3FFC00
0B3800
030400
ENDCHAR
STARTCHAR Racute
ENCODING 340
SWIDTH 599 0
DWIDTH 14 0
BBX 15 27 0 -2
BITMAP
0008
001C
003C
00FE
01F0
0080
0000
0F40
FFF0
3FF8
3FFC
1FFC
1FFC
1FFC
1F7C
1E3C
1E3C
1F78
0FF8
0FF8
0FF0
0F70
0F70
0770
0770
0538
0300
ENDCHAR
STARTCHAR racute
ENCODING 341
SWIDTH 616 0
DWIDTH 15 0
BBX 16 27 0 -2
BITMAP
000C
001C
003E
007F
00F0
0080
0000
07C0
FFF8
7FFC
3FFC
1FFC
1FFC
1FFC
1FFC
1F3C
1E38
1F78
0FF8
0FF8
0FF0
0FF0
0E70
0F70
0E70
0D70
0850
ENDCHAR
STARTCHAR Rcommaaccent
ENCODING 342
SWIDTH 599 0
DWIDTH 14 0
BBX 14 31 0 -13
BITMAP
0F40
FFF0
3FF8
3FFC
1FFC
1FFC
1FFC
1F7C
1E3C
1E3C
1F78
0FF8
0FF8
0FF0
0F70
0F70
0770
0770
0538
0300
0000
07E0
07E0
07E0
07E0
07E0
07E0
00E0
00C0
00C0
00C0
ENDCHAR
STARTCHAR rcommaaccent
ENCODING 343
SWIDTH 616 0
DWIDTH 15 0
BBX 14 32 0 -14
BITMAP
07C0
FFF8
7FFC
3FFC
1FFC
1FFC
1FFC
1FFC
1F3C
1E38
1F78
0FF8
0FF8
0FF0
0FF0
0E70
0F70
0E70
0D70
0850
0000
0000
07E0
07E0
07E0
07E0
07E0
07E0
0060
00E0
00E0
00E0
ENDCHAR
STARTCHAR Rcaron
ENCODING 344
SWIDTH 599 0
DWIDTH 14 0
BBX 14 30 0 -2
BITMAP
0810
1C18
1C3C
1E78
0E70
0FF0
07E0
07E0
03C0
0000
0F40
FFF0
3FF8
3FFC
1FFC
1FFC
1FFC
1F7C
1E3C
1E3C
1F78
0FF8
0FF8
0FF0
0F70
0F70
0770
0770
0538
0300
ENDCHAR
STARTCHAR rcaron
ENCODING 345
SWIDTH 616 0
DWIDTH 15 0
BBX 14 30 0 -2
BITMAP
0810
1C38
1C38
1E78
0E70
0FF0
07E0
07E0
03C0
0000
07C0
FFF8
7FFC
3FFC
1FFC
1FFC
1FFC
1FFC
1F3C
1E38
1F78
0FF8
0FF8
0FF0
0FF0
0E70
0F70
0E70
0D70
0850
ENDCHAR
STARTCHAR Sacute
ENCODING 346
SWIDTH 504 0
DWIDTH 12 0
BBX 13 27 1 -2
BITMAP
0020
00E0
01F0
03F8
07C0
0400
0000
0600
3F80
7FC0
7FE0
FFC0
FFC0
FFC0
FFC0
F3C0
F860
FE00
7F80
3F80
07C0
73C0
FBC0
7F80
7F00
3700
0C00
ENDCHAR
STARTCHAR sacute
ENCODING 347
SWIDTH 481 0
DWIDTH 12 0
BBX 13 26 1 -1
BITMAP
0060
00E0
01F0
03F8
07C0
0400
0000
1E00
3F00
7FC0
FFC0
FFC0
FFC0
FFC0
FFC0
F7C0
F380
FC40
FF00
7F00
1F80
0F80
F380
7F00
3F00
3E00
ENDCHAR
STARTCHAR Scircumflex
ENCODING 348
SWIDTH 504 0
DWIDTH 12 0
BBX 11 29 1 -2
BITMAP
1F00
1F80
3F80
3FC0
3BC0
71E0
60E0
C040
0000
0600
3F80
7FC0
7FE0
FFC0
FFC0
FFC0
FFC0
F3C0
F860
FE00
7F80
3F80
07C0
73C0
FBC0
7F80
7F00
3700
0C00
ENDCHAR
STARTCHAR scircumflex
ENCODING 349
SWIDTH 481 0
DWIDTH 12 0
BBX 11 28 1 -1
BITMAP
1F00
3F00
3F80
3F80
73C0
71C0
E0E0
C040
0000
1E00
3F00
7FC0
FFC0
FFC0
FFC0
FFC0
FFC0
F7C0
F380
FC40
FF00
7F00
1F80
0F80
F380
7F00
3F00
3E00
ENDCHAR
STARTCHAR Scedilla
ENCODING 350
SWIDTH 504 0
DWIDTH 12 0
BBX 11 26 1 -8
BITMAP
0600
3F80
7FC0
7FE0
FFC0
FFC0
FFC0
FFC0
F3C0
F860
FE00
7F80
3F80
07C0
73C0
FBC0
7F80
7F00
3700
0E00
0C00
0F00
0300
0300
0F00
0F00
ENDCHAR
STARTCHAR scedilla
ENCODING 351
SWIDTH 481 0
DWIDTH 12 0
BBX 10 26 1 -8
BITMAP
1E00
3F00
7FC0
FFC0
FFC0
FFC0
FFC0
FFC0
F7C0
F380
FC40
FF00
7F00
1F80
0F80
F380
7F00
3F00
3E00
0C00
1800
1F00
0600
0200
1E00
1E00
ENDCHAR
STARTCHAR Scaron
ENCODING 352
SWIDTH 503 0
DWIDTH 12 0
BBX 11 32 1 -2
BITMAP
60C0
E1E0
73C0
73C0
7F80
3F80
3F00
1F00
0000
0000
0000
0000
0600
3F80
7FC0
7FE0
FFC0
FFC0
FFC0
FFC0
F3C0
F8E0
FE00
7F80
3F80
07C0
73C0
FB80
7F80
7F00
3700
0C00
ENDCHAR
STARTCHAR scaron
ENCODING 353
SWIDTH 479 0
DWIDTH 12 0
BBX 11 31 0 -1
BITMAP
2040
F0E0
71E0
39C0
3FC0
3F80
1F80
1F00
0000
0000
0000
0000
0F00
1F80
3FC0
7FE0
7FE0
7FE0
7FE0
7FE0
7BE0
79C0
7E20
7F80
3F80
0FC0
07C0
7980
3F80
1F80
1F00
ENDCHAR
STARTCHAR Tcommaaccent
ENCODING 354
SWIDTH 622 0
DWIDTH 15 0
BBX 13 28 1 -10
BITMAP
0F00
FFF8
7FF8
7FF0
7FF0
7FF0
7FF0
3FF0
3FF0
0780
0780
0780
0780
0780
0780
0700
0780
0780
0780
0680
0700
0300
0200
07C0
01C0
00C0
0780
0780
ENDCHAR
STARTCHAR tcommaaccent
ENCODING 355
SWIDTH 683 0
DWIDTH 16 0
BBX 16 28 0 -10
BITMAP
0FF0
FFFF
7FFE
3FFC
3FFC
1FFC
1FFC
1FFC
1FFC
11E0
01E0
01E0
01E0
01E0
01E0
01E0
01E0
01E0
01E0
01E0
00E0
00C0
0080
01F0
0070
0030
01E0
01E0
ENDCHAR
STARTCHAR Tcaron
ENCODING 356
SWIDTH 622 0
DWIDTH 15 0
BBX 13 31 1 -3
BITMAP
1040
3060
78F0
38E0
3DE0
1FC0
1FC0
0F80
0F80
0000
0F00
FFF8
7FF8
7FF0
7FF0
7FF0
7FF0
3FF0
3FF0
0780
0780
0780
0780
0780
0780
0700
0780
0780
0780
0680
0400
ENDCHAR
STARTCHAR tcaron
ENCODING 357
SWIDTH 622 0
DWIDTH 15 0
BBX 13 31 1 -3
BITMAP
1020
3870
3878
3CF0
1CE0
1FE0
0FC0
0FC0
0780
0000
0F00
FFF8
7FF8
7FF0
7FF0
7FF0
7FF0
3FF0
3FF0
0780
0780
0780
0780
0780
0780
0700
0780
0780
0780
0680
0400
ENDCHAR
STARTCHAR Utilde
ENCODING 360
SWIDTH 637 0
DWIDTH 15 0
BBX 15 27 0 -2
BITMAP
0040
18E0
3FF0
3FF8
1FF0
0E20
0000
9E40
7E7E
3E7C
3E7C
3E78
3E78
3E78
1E70
1E70
1E70
1CF0
1EF0
1EF0
1EF0
1EF0
1FF0
0FE0
0E80
0540
0040
ENDCHAR
STARTCHAR utilde
ENCODING 361
SWIDTH 708 0
DWIDTH 17 0
BBX 17 25 0 0
BITMAP
002000
0C7000
1FF800
1FFC00
0FF800
071000
000000
0F0000
FF3E00
3F3F80
3F3E00
3F3F00
1F3E00
1F3E00
1F3C00
1F3C00
1F3C00
1F3C00
1F3C00
1F3C00
0F3800
0F7800
0FF800
07F800
037000
ENDCHAR
STARTCHAR Umacron
ENCODING 362
SWIDTH 637 0
DWIDTH 15 0
BBX 15 24 0 -2
BITMAP
0FF0
0FF0
0FF0
0000
9E40
7E7E
3E7C
3E7C
3E78
3E78
3E78
1E70
1E70
1E70
1CF0
1EF0
1EF0
1EF0
1EF0
1FF0
0FE0
0E80
0540
0040
ENDCHAR
STARTCHAR umacron
ENCODING 363
SWIDTH 708 0
DWIDTH 17 0
BBX 17 22 0 0
BITMAP
0FF800
0FF000
0FF000
000000
0F0000
FF3E00
3F3F80
3F3E00
3F3F00
1F3E00
1F3E00
1F3C00
1F3C00
1F3C00
1F3C00
1F3C00
1F3C00
0F3800
0F7800
0FF800
07F800
037000
ENDCHAR
STARTCHAR Ubreve
ENCODING 364
SWIDTH 637 0
DWIDTH 15 0
BBX 15 28 0 -2
BITMAP
0E20
0E38
0F78
0FF0
07F0
0160
0050
0000
9E40
7E7E
3E7C
3E7C
3E78
3E78
3E78
1E70
1E70
1E70
1CF0
1EF0
1EF0
1EF0
1EF0
1FF0
0FE0
0E80
0540
0040
ENDCHAR
STARTCHAR ubreve
ENCODING 365
SWIDTH 708 0
DWIDTH 17 0
BBX 17 26 0 0
BITMAP
071000
071C00
073C00
07F800
03F800
00B000
003000
000000
0F0000
FF3E00
3F3F80
3F3E00
3F3F00
1F3E00
1F3E00
1F3C00
1F3C00
1F3C00
1F3C00
1F3C00
1F3C00
0F3800
0F7800
0FF800
07F800
037000
ENDCHAR
STARTCHAR Uring
ENCODING 366
SWIDTH 637 0
DWIDTH 15 0
BBX 15 28 0 -2
BITMAP
0380
07E0
0660
0660
0660
07C0
05C0
0000
9E40
7E7E
3E7C
3E7C
3E78
3E78
3E78
1E70
1E70
1E70
1CF0
1EF0
1EF0
1EF0
1EF0
1FF0
0FE0
0E80
0540
0040
ENDCHAR
STARTCHAR uring
ENCODING 367
SWIDTH 708 0
DWIDTH 17 0
BBX 17 26 0 0
BITMAP
00E000
03F000
033000
033000
033000
03E000
02E000
000000
0F0000
FF3E00
3F3F80
3F3E00
3F3F00
1F3E00
1F3E00
1F3C00
1F3C00
1F3C00
1F3C00
1F3C00
1F3C00
0F3800
0F7800
0FF800
07F800
037000
ENDCHAR
STARTCHAR Uhungarumlaut
ENCODING 368
SWIDTH 637 0
DWIDTH 15 0
BBX 15 29 0 -2
BITMAP
0430
063C
0F3C
0F78
0E70
1C60
18C0
1080
0000
9E40
7E7E
3E7C
3E7C
3E78
3E78
3E78
1E70
1E70
1E70
1CF0
1EF0
1EF0
1EF0
1EF0
1FF0
0FE0
0E80
0540
0040
ENDCHAR
STARTCHAR uhungarumlaut
ENCODING 369
SWIDTH 708 0
DWIDTH 17 0
BBX 17 27 0 0
BITMAP
021000
031E00
079E00
073C00
0F3800
0E7000
1C6000
084000
000000
0F0000
FF3E00
3F3F80
3F3E00
3F3F00
1F3E00
1F3E00
1F3C00
1F3C00
1F3C00
1F3C00
1F3C00
1F3C00
0F3800
0F7800
0FF800
07F800
037000
ENDCHAR
STARTCHAR Uogonek
ENCODING 370
SWIDTH 637 0
DWIDTH 15 0
BBX 15 25 0 -7
BITMAP
9E40
7E7E
3E7C
3E7C
3E78
3E78
3E78
1E70
1E70
1E70
1CF0
1EF0
1EF0
1EF0
1EF0
1FF0
0FE0
0FC0
05C0
0180
0180
01C0
01F8
00F8
0078
ENDCHAR
STARTCHAR uogonek
ENCODING 371
SWIDTH 662 0
DWIDTH 16 0
BBX 17 25 0 -7
BITMAP
0F0000
FF3E00
3E3F80
3F3E00
3F3F00
1F3E00
1F3C00
1F3C00
1F3C00
1F3C00
1F7C00
1F3C00
1F3C00
0F7800
0F7800
0FF800
07F800
03F000
018000
018000
038000
01C000
01F800
01F800
00F800
ENDCHAR
STARTCHAR Wcircumflex
ENCODING 372
SWIDTH 777 0
DWIDTH 19 0
BBX 19 28 0 0
BITMAP
01E000
03F000
03F800
07F800
073C00
061C00
0E0E00
0C0C00
000000
000000
04E600
3EE7E0
FEE780
3EEF00
1EEF00
0FFE00
0FFE00
0FFC00
0FFC00
07FC00
07FC00
07FC00
03F800
03B800
03B800
03B800
01B000
01B000
ENDCHAR
STARTCHAR wcircumflex
ENCODING 373
SWIDTH 704 0
DWIDTH 17 0
BBX 17 27 0 0
BITMAP
03E000
03E000
07F000
07F000
0F7800
0E3800
1C1C00
080800
000000
00D000
FCCF80
7DCF00
1DDE00
3DFE00
1FFC00
1FFC00
0FFC00
0FF800
07F800
07F800
07F800
07F800
03F800
03B800
03B000
03B000
033000
ENDCHAR
STARTCHAR Ycircumflex
ENCODING 374
SWIDTH 688 0
DWIDTH 17 0
BBX 17 29 0 -1
BITMAP
03E000
07E000
07F000
07F000
0E7800
0E3800
1C1C00
180800
000000
000000
1E3000
FE3E00
1F3F80
0F7C00
07F800
03F800
03F000
01F000
01F000
01F000
00F000
00F000
00F000
00F000
00E000
00E000
006000
006000
006000
ENDCHAR
STARTCHAR ycircumflex
ENCODING 375
SWIDTH 604 0
DWIDTH 15 0
BBX 14 30 0 -2
BITMAP
0780
0FC0
0FC0
1FE0
1CE0
3870
3078
3030
0000
0000
9C40
7CFC
3EF8
0EF0
0EE0
07C0
07C0
07C0
07C0
03C0
03C0
03C0
03C0
0380
03C0
03C0
0380
0380
0380
0200
ENDCHAR
STARTCHAR Ydieresis
ENCODING 376
SWIDTH 688 0
DWIDTH 17 0
BBX 17 26 0 -1
BITMAP
1E7C00
1E7C00
1E7C00
1E7E00
1E7C00
1E7400
000000
1E3000
FE3E00
1F3F80
0F7C00
07F800
03F800
03F000
01F000
01F000
01F000
00F000
00F000
00F000
00F000
00E000
00E000
006000
006000
006000
ENDCHAR
STARTCHAR Zacute
ENCODING 377
SWIDTH 695 0
DWIDTH 17 0
BBX 16 26 1 -1
BITMAP
0004
001C
003E
007F
00F8
0080
0000
1FE0
FFFF
FFFE
7FFC
7FFC
3FF8
3FF8
3FF0
31F0
23C0
0780
0780
0700
0F00
0E00
1FE0
1FC0
1FC0
0880
ENDCHAR
STARTCHAR zacute
ENCODING 378
SWIDTH 622 0
DWIDTH 15 0
BBX 15 27 1 -2
BITMAP
0018
0038
007C
00FE
01E0
0100
0000
3F80
FFF8
FFF8
7FF0
7FF0
3FE0
3FE0
3FE0
3BC0
2380
0780
0700
0700
0600
0E00
0FC0
1FC0
1FC0
0AC0
0040
ENDCHAR
STARTCHAR Zdotaccent
ENCODING 379
SWIDTH 695 0
DWIDTH 17 0
BBX 16 28 1 -1
BITMAP
07E0
0FE0
07E0
07E0
07E0
07E0
07E0
0400
0000
1FE0
FFFF
FFFE
7FFC
7FFC
3FF8
3FF8
3FF0
31F0
23C0
0780
0780
0700
0F00
0E00
1FE0
1FC0
1FC0
0880
ENDCHAR
STARTCHAR zdotaccent
ENCODING 380
SWIDTH 622 0
DWIDTH 15 0
BBX 13 29 1 -2
BITMAP
0F80
1F80
1F80
1FC0
1FC0
0F80
0F80
0800
0000
3F80
FFF8
FFF8
7FF0
7FF0
3FE0
3FE0
3FE0
3BC0
2380
0780
0700
0700
0600
0E00
0FC0
1FC0
1FC0
0AC0
0040
ENDCHAR
STARTCHAR Zcaron
ENCODING 381
SWIDTH 693 0
DWIDTH 17 0
BBX 16 31 1 -1
BITMAP
1830
1C38
1C70
0EF0
0FE0
0FE0
07E0
07C0
0000
0000
0000
0000
1FE0
FFFF
FFFE
7FFC
7FFC
3FF8
3FF8
3FF0
31F0
23C0
0780
0780
0700
0F00
0E00
1FE0
1FC0
1FC0
0880
ENDCHAR
STARTCHAR zcaron
ENCODING 382
SWIDTH 621 0
DWIDTH 15 0
BBX 13 32 1 -2
BITMAP
3060
78F0
38E0
3DE0
1FC0
1FC0
0F80
0F80
0000
0000
0000
0000
3F80
FFF8
FFF8
7FF0
7FF0
3FE0
3FE0
3FE0
3BC0
2380
0780
0700
0700
0600
0E00
0FC0
1FC0
1FC0
0AC0
0040
ENDCHAR
STARTCHAR DZ
ENCODING 497
SWIDTH 194 0
DWIDTH 5 0
BBX 1 1 0 0
BITMAP
00
ENDCHAR
STARTCHAR Dz
ENCODING 498
SWIDTH 194 0
DWIDTH 5 0
BBX 1 1 0 0
BITMAP
00
ENDCHAR
STARTCHAR dotlessj
ENCODING 567
SWIDTH 458 0
DWIDTH 11 0
BBX 12 19 -1 -1
BITMAP
0F00
0FF0
07E0
07C0
07C0
07C0
07C0
07C0
07C0
07C0
03C0
0380
F380
7380
7380
7F80
3F80
3F00
0280
ENDCHAR
STARTCHAR circumflex
ENCODING 710
SWIDTH 528 0
DWIDTH 13 0
BBX 11 8 1 17
BITMAP
1F00
3F00
3F80
3F80
73C0
71C0
E0E0
C040
ENDCHAR
STARTCHAR caron
ENCODING 711
SWIDTH 486 0
DWIDTH 12 0
BBX 11 9 0 17
BITMAP
2040
E0C0
70E0
79E0
3BC0
3FC0
1F80
1F80
1F00
ENDCHAR
STARTCHAR breve
ENCODING 728
SWIDTH 464 0
DWIDTH 11 0
BBX 9 7 1 -2
BITMAP
E200
E380
7380
7F00
7F00
1700
0500
ENDCHAR
STARTCHAR dotaccent
ENCODING 729
SWIDTH 388 0
DWIDTH 9 0
BBX 7 8 1 5
BITMAP
7E
FE
7E
7E
7E
7E
7E
40
ENDCHAR
STARTCHAR ring
ENCODING 730
SWIDTH 370 0
DWIDTH 9 0
BBX 7 7 1 7
BITMAP
38
7C
CE
C6
44
7C
78
ENDCHAR
STARTCHAR ogonek
ENCODING 731
SWIDTH 360 0
DWIDTH 9 0
BBX 7 8 1 0
BITMAP
60
60
E0
E0
E0
7E
7E
3C
ENDCHAR
STARTCHAR tilde
ENCODING 732
SWIDTH 535 0
DWIDTH 13 0
BBX 11 6 1 -2
BITMAP
0100
6380
FFC0
FFE0
7FC0
3880
ENDCHAR
STARTCHAR hungarumlaut
ENCODING 733
SWIDTH 554 0
DWIDTH 13 0
BBX 12 8 1 17
BITMAP
1080
38E0
3DF0
79E0
71C0
6380
C300
C600
ENDCHAR
STARTCHAR dotaccentcmb
ENCODING 775
SWIDTH 396 0
DWIDTH 10 0
BBX 7 8 1 9
BITMAP
04
FE
7E
7E
7E
7E
7E
7E
ENDCHAR
STARTCHAR uni030F
ENCODING 783
SWIDTH 549 0
DWIDTH 13 0
BBX 12 8 0 17
BITMAP
1080
79C0
FBC0
39E0
1CE0
0C70
0630
0410
ENDCHAR
STARTCHAR uni0311
ENCODING 785
SWIDTH 490 0
DWIDTH 12 0
BBX 10 6 1 9
BITMAP
1E00
7F00
7F80
7380
6380
E1C0
ENDCHAR
STARTCHAR uni0326
ENCODING 806
SWIDTH 360 0
DWIDTH 9 0
BBX 5 10 2 -2
BITMAP
F8
F8
F8
F8
F8
F8
18
18
38
38
ENDCHAR
STARTCHAR endash
ENCODING 8211
SWIDTH 478 0
DWIDTH 11 0
BBX 9 5 1 7
BITMAP
F400
FF80
FF80
FF80
FF80
ENDCHAR
STARTCHAR emdash
ENCODING 8212
SWIDTH 567 0
DWIDTH 14 0
BBX 11 5 1 7
BITMAP
F100
FFE0
FFE0
FFE0
FFE0
ENDCHAR
STARTCHAR quoteleft
ENCODING 8216
SWIDTH 373 0
DWIDTH 9 0
BBX 7 12 1 6
BITMAP
60
60
60
60
60
FE
FE
FE
FE
FE
FE
7C
ENDCHAR
STARTCHAR quoteright
ENCODING 8217
SWIDTH 369 0
DWIDTH 9 0
BBX 6 12 1 6
BITMAP
E4
FC
FC
FC
FC
FC
FC
9C
0C
0C
1C
1C
ENDCHAR
STARTCHAR quotesinglbase
ENCODING 8218
SWIDTH 369 0
DWIDTH 9 0
BBX 6 12 1 6
BITMAP
E4
FC
FC
FC
FC
FC
FC
9C
0C
0C
1C
1C
ENDCHAR
STARTCHAR quotedblleft
ENCODING 8220
SWIDTH 687 0
DWIDTH 16 0
BBX 14 12 1 6
BITMAP
6060
60E0
60E0
60E0
60C0
FEFC
FEFC
FEFC
FEFC
FEFC
FEFC
7EFC
ENDCHAR
STARTCHAR quotedblright
ENCODING 8221
SWIDTH 677 0
DWIDTH 16 0
BBX 14 12 1 6
BITMAP
FCCC
FCFC
FCFC
FCFC
FCFC
FCFC
FCFC
FC9C
0C1C
1C18
1C18
1818
ENDCHAR
STARTCHAR quotedblbase
ENCODING 8222
SWIDTH 697 0
DWIDTH 17 0
BBX 15 11 1 -7
BITMAP
FCFC
FCFC
FCFE
FCFE
FCFE
FCFC
FCFE
0C0C
0C0C
1C0C
1C1C
ENDCHAR
STARTCHAR ellipsis
ENCODING 8230
SWIDTH 1462 0
DWIDTH 35 0
BBX 33 7 1 1
BITMAP
FC07E03F80
7C03E01F80
7C03E01F80
7C03F01F80
7C03E01F80
7C03E01F80
7C03E01F80
ENDCHAR
STARTCHAR guilsinglleft
ENCODING 8249
SWIDTH 459 0
DWIDTH 11 0
BBX 9 14 1 1
BITMAP
1F80
1F80
3F00
3E00
7C00
FC00
F800
FC00
FC00
3C00
3E00
1F00
0F80
0080
ENDCHAR
STARTCHAR guilsinglright
ENCODING 8250
SWIDTH 432 0
DWIDTH 10 0
BBX 9 13 1 2
BITMAP
FC00
FC00
7C00
3E00
1E00
1F00
0F80
1F00
1F00
3E00
7C00
FC00
F800
ENDCHAR
STARTCHAR fraction
ENCODING 8260
SWIDTH 371 0
DWIDTH 9 0
BBX 9 19 0 -1
BITMAP
BE80
7F00
7F00
3E00
1F00
3E00
3E00
3E00
3E00
3E00
1E00
1E00
1C00
1E00
1C00
1C00
1C00
1C00
0400
ENDCHAR
STARTCHAR Euro
ENCODING 8364
SWIDTH 587 0
DWIDTH 14 0
BBX 13 23 0 -5
BITMAP
03C0
07E0
1FF0
1FF8
1FF8
3FF8
1FF8
1FF8
1EF8
1E78
FF78
1E00
7F00
FF60
0E70
0EF0
0FF0
0FE0
02C0
0380
0380
0300
0100
ENDCHAR
STARTCHAR trademark
ENCODING 8482
SWIDTH 785 0
DWIDTH 19 0
BBX 18 12 0 6
BITMAP
FE7BC0
7F3B80
7F3B80
7F3F80
7E3F80
5D3F80
1C3F80
1C1580
1C1580
0C1580
0C1680
0C0000
ENDCHAR
STARTCHAR minus
ENCODING 8722
SWIDTH 478 0
DWIDTH 11 0
BBX 9 5 1 7
BITMAP
F400
FF80
FF80
FF80
FF80
ENDCHAR
STARTCHAR commaaccent
ENCODING 63171
SWIDTH 360 0
DWIDTH 9 0
BBX 6 12 1 -4
BITMAP
FC
FC
FC
FC
FC
FC
FC
0C
0C
1C
1C
10
ENDCHAR
STARTCHAR .notdef
ENCODING -1
SWIDTH 365 0
DWIDTH 9 0
BBX 6 16 1 0
BITMAP
FC
84
84
84
84
84
84
84
84
84
84
84
84
84
84
FC
ENDCHAR
STARTCHAR .null
ENCODING -1
SWIDTH 0 0
DWIDTH 0 0
BBX 1 1 0 0
BITMAP
00
ENDCHAR
STARTCHAR nonmarkingreturn
ENCODING -1
SWIDTH 333 0
DWIDTH 8 0
BBX 1 1 0 0
BITMAP
00
ENDCHAR
ENDFONT
